<svg width="14" height="20" viewBox="0 0 14 20" fill="none" xmlns="http://www.w3.org/2000/svg">
<path d="M10.6673 18.9825L10.5663 18.9554C-0.925526 15.1565 0.0570594 4.86061 0.631038 1.79188C0.675012 1.55311 0.76565 1.32535 0.897761 1.12167C1.02987 0.917977 1.20086 0.742359 1.40092 0.604875C1.60099 0.46739 1.8262 0.37074 2.06365 0.320463C2.30111 0.270187 2.54614 0.267272 2.7847 0.311884L6.05755 1.18884C6.29553 1.25236 6.50895 1.38591 6.67017 1.57218C6.83138 1.75845 6.93296 1.98886 6.96174 2.23357L7.26913 4.6978C7.29818 4.93711 7.2563 5.1797 7.14869 5.39543C7.04109 5.61116 6.8725 5.79053 6.66387 5.91125L5.05637 6.84978C4.95296 8.02622 5.2133 9.20598 5.80215 10.2294C6.391 11.2529 7.27994 12.0707 8.34872 12.5721L9.97998 11.64C10.1908 11.522 10.4316 11.4688 10.6724 11.4869C10.9133 11.505 11.1434 11.5936 11.3342 11.7417L13.3331 13.239C13.5265 13.3882 13.671 13.5915 13.7484 13.8232C13.8258 14.0549 13.8325 14.3044 13.7676 14.54L12.9269 17.6773C12.8002 18.1501 12.491 18.5532 12.0672 18.798C11.6435 19.0427 11.1399 19.1091 10.6673 18.9825ZM2.60882 1.53849C2.45129 1.49627 2.28343 1.5184 2.14218 1.59998C2.00093 1.68157 1.89785 1.81594 1.85562 1.97353L1.84289 2.02107C1.17356 5.61195 0.696789 14.4003 10.9501 17.7845C11.0268 17.8103 11.1079 17.8206 11.1886 17.8149C11.2694 17.8092 11.3482 17.7877 11.4206 17.7514C11.493 17.7152 11.5576 17.6651 11.6106 17.6038C11.6635 17.5426 11.7039 17.4715 11.7294 17.3947L12.5796 14.2216L10.5807 12.7244L8.4222 13.9611L8.14664 13.849C3.15253 11.8167 3.83681 6.45931 3.85114 6.40583L3.89192 6.11107L6.03578 4.85771L5.74505 2.37884L2.60882 1.53849Z" fill="white"/>
</svg>
