<svg width="14" height="17" viewBox="0 0 14 17" fill="none" xmlns="http://www.w3.org/2000/svg">
<path fill-rule="evenodd" clip-rule="evenodd" d="M6.77305 4.42188C5.47453 4.42188 4.42188 5.47453 4.42188 6.77305C4.42188 8.07157 5.47453 9.12423 6.77305 9.12423C8.07157 9.12423 9.12423 8.07157 9.12423 6.77305C9.12423 5.47453 8.07157 4.42188 6.77305 4.42188ZM3.42188 6.77305C3.42188 4.92225 4.92225 3.42188 6.77305 3.42188C8.62386 3.42188 10.1242 4.92225 10.1242 6.77305C10.1242 8.62386 8.62386 10.1242 6.77305 10.1242C4.92225 10.1242 3.42188 8.62386 3.42188 6.77305Z" fill="white"/>
<path fill-rule="evenodd" clip-rule="evenodd" d="M1.98048 2.02025C3.24986 0.727785 4.97345 0 6.77259 0C8.57173 0 10.2953 0.727785 11.5647 2.02025C12.8338 3.31241 13.5452 5.06307 13.5452 6.88664C13.5452 8.49572 13.2002 9.59644 12.262 10.7884C12.258 10.7934 12.254 10.7983 12.2498 10.8032L7.15334 16.7907C7.05834 16.9023 6.91916 16.9666 6.77259 16.9666C6.62603 16.9666 6.48684 16.9023 6.39185 16.7907L1.29537 10.8032C1.29122 10.7983 1.28718 10.7934 1.28323 10.7884C0.344988 9.59644 0 8.49572 0 6.88664C0 5.06307 0.711391 3.31241 1.98048 2.02025ZM6.77259 1C5.24454 1 3.77722 1.61797 2.69392 2.72096C1.61033 3.82425 1 5.32253 1 6.88664C1 8.29493 1.28399 9.17003 2.06316 10.1624L6.77259 15.6952L11.482 10.1624C12.2612 9.17003 12.5452 8.29493 12.5452 6.88664C12.5452 5.32253 11.9349 3.82425 10.8513 2.72096C9.76797 1.61797 8.30064 1 6.77259 1Z" fill="white"/>
</svg>
