<svg width="16" height="13" viewBox="0 0 16 13" fill="none" xmlns="http://www.w3.org/2000/svg">
<path d="M14.8712 0.459961H0.991411C0.728473 0.459961 0.476303 0.567091 0.290378 0.757784C0.104452 0.948477 0 1.20711 0 1.47679V11.6451C0 11.9148 0.104452 12.1734 0.290378 12.3641C0.476303 12.5548 0.728473 12.6619 0.991411 12.6619H14.8712C15.1341 12.6619 15.3863 12.5548 15.5722 12.3641C15.7581 12.1734 15.8626 11.9148 15.8626 11.6451V1.47679C15.8626 1.20711 15.7581 0.948477 15.5722 0.757784C15.3863 0.567091 15.1341 0.459961 14.8712 0.459961ZM14.1078 11.6451H1.81428L5.28422 7.96418L4.57041 7.25748L0.991411 11.0554V2.24959L7.15303 8.53869C7.33879 8.72808 7.59006 8.83438 7.85198 8.83438C8.1139 8.83438 8.36517 8.72808 8.55092 8.53869L14.8712 2.09198V10.9893L11.2228 7.24732L10.5238 7.96418L14.1078 11.6451ZM1.64079 1.47679H14.0681L7.85198 7.81674L1.64079 1.47679Z" fill="white"/>
</svg>
