<svg width="86" height="87" viewBox="0 0 86 87" fill="none" xmlns="http://www.w3.org/2000/svg">
<path d="M43 86.9043C66.7482 86.9043 86 67.6525 86 43.9043C86 20.1561 66.7482 0.904297 43 0.904297C19.2518 0.904297 0 20.1561 0 43.9043C0 67.6525 19.2518 86.9043 43 86.9043Z" fill="#AFD1D1"/>
<path d="M23.2923 49.5986C21.3006 49.5986 19.4691 49.2848 17.7928 48.6606C16.1165 48.0346 14.6665 47.1759 13.4444 46.0842C12.2207 44.9926 11.2711 43.7341 10.589 42.3072C9.90692 40.882 9.56836 39.3544 9.56836 37.7243C9.56836 36.0943 9.90857 34.6179 10.589 33.2059C11.2711 31.7938 12.2207 30.5585 13.4444 29.4949C14.6665 28.433 16.1066 27.5891 17.7664 26.9632C19.4245 26.3373 21.2494 26.0251 23.2411 26.0251C25.2328 26.0251 27.0561 26.3389 28.7158 26.9632C30.3739 27.5891 31.7975 28.4413 32.9849 29.5164C34.1707 30.5932 35.0988 31.8302 35.7611 33.2273C36.4233 34.6245 36.7569 36.1075 36.7569 37.6798C36.7569 37.9126 36.747 38.1455 36.7305 38.3783C36.7123 38.6112 36.6859 38.7714 36.6512 38.8589H13.3387C13.4428 40.081 13.7846 41.209 14.3593 42.2428C14.9357 43.2767 15.669 44.1718 16.5591 44.9265C17.4493 45.6829 18.4798 46.2725 19.6507 46.6936C20.82 47.1164 22.0685 47.3261 23.3963 47.3261C24.3047 47.3261 25.1948 47.2237 26.0685 47.0206C26.9404 46.8175 27.7447 46.54 28.478 46.1916C29.2113 45.8431 29.8669 45.4137 30.4416 44.9034C31.018 44.3947 31.4622 43.8332 31.7777 43.2222L34.8676 43.9208C34.4481 44.7663 33.8553 45.5293 33.0873 46.213C32.3194 46.8968 31.4276 47.4946 30.4152 48.0033C29.4028 48.5136 28.2848 48.9066 27.0627 49.1824C25.8389 49.4566 24.5805 49.5953 23.2906 49.5953L23.2923 49.5986ZM33.3499 36.5898C33.2459 35.3677 32.904 34.2546 32.3293 33.2504C31.7529 32.2463 31.0196 31.3809 30.1295 30.6526C29.2393 29.926 28.1989 29.3579 27.0131 28.9499C25.8257 28.5437 24.5689 28.3389 23.2411 28.3389C21.9133 28.3389 20.6565 28.542 19.4691 28.9499C18.2817 29.3579 17.2429 29.926 16.3527 30.6526C15.4625 31.3793 14.7458 32.2529 14.2041 33.2719C13.6624 34.2909 13.3404 35.3974 13.2347 36.5898H33.3499Z" fill="#3B3561"/>
<path d="M16.6992 65.9748L60.1633 22.3473H17.6885V17.1005H69.2994V21.8337L26.083 65.4612H69.2994V70.708H16.6992V65.9748Z" fill="#3B3561"/>
<path d="M46.8923 52.2774C46.8923 50.8456 47.1895 49.4914 47.7824 48.2147C48.3753 46.9398 49.2126 45.8267 50.2911 44.8754C51.3695 43.9242 52.6593 43.176 54.1589 42.6294C55.6584 42.0827 57.3149 41.8086 59.1266 41.8086C61.4387 41.8086 63.4551 42.2446 65.1743 43.1166C66.8919 43.9886 68.19 45.1677 69.0653 46.6524L65.972 47.4732C65.285 46.4311 64.3304 45.6169 63.1116 45.0307C61.8928 44.4444 60.5336 44.1521 59.0324 44.1521C57.7822 44.1521 56.6179 44.3602 55.5395 44.778C54.4611 45.1942 53.523 45.7623 52.727 46.4774C51.9293 47.1941 51.3051 48.0463 50.8526 49.0355C50.3984 50.0248 50.1738 51.1049 50.1738 52.2774C50.1738 53.45 50.4083 54.5036 50.8773 55.5193C51.3464 56.535 51.9871 57.4136 52.7997 58.1551C53.6122 58.8966 54.5569 59.4829 55.6353 59.9123C56.7137 60.3417 57.8615 60.5564 59.0803 60.5564C59.8615 60.5564 60.6344 60.4655 61.4007 60.2822C62.1653 60.1006 62.8771 59.8462 63.5328 59.5209C64.1884 59.1955 64.7516 58.824 65.2206 58.4078C65.6896 57.9916 66.0183 57.549 66.2049 57.08L69.2981 57.8611C68.953 58.5911 68.4542 59.2616 67.7986 59.8727C67.1429 60.4854 66.3684 61.0188 65.4782 61.4746C64.5881 61.9304 63.6038 62.2822 62.5253 62.5299C61.4469 62.7776 60.3288 62.9015 59.1745 62.9015C57.3925 62.9015 55.7526 62.6207 54.2513 62.0625C52.7518 61.5027 51.4537 60.7347 50.3604 59.7571C49.2671 58.7794 48.415 57.6547 47.8056 56.3781C47.1962 55.1015 46.8906 53.734 46.8906 52.2758L46.8923 52.2774Z" fill="#3B3561"/>
</svg>
