<svg width="21" height="21" viewBox="0 0 21 21" fill="none" xmlns="http://www.w3.org/2000/svg">
<g clip-path="url(#clip0_336_154)">
<path d="M6.79102 11.2587C6.95962 16.3167 8.81421 19.7729 10.5002 19.7729C12.1862 19.7729 14.0408 16.3167 14.2094 11.2587H6.79102Z" fill="black"/>
<path d="M10.5002 1.22693C8.81421 1.22693 6.95962 4.68322 6.79102 9.7412H14.2094C14.0408 4.68322 12.1862 1.22693 10.5002 1.22693Z" fill="black"/>
<path d="M15.6421 9.74139H20.4472C20.11 5.3578 16.9909 1.73291 12.7759 0.721313C14.4619 2.32301 15.5578 5.6107 15.7264 9.74139H15.6421Z" fill="black"/>
<path d="M15.6419 11.2587C15.5576 15.3051 14.3774 18.677 12.6914 20.2787C16.9064 19.2671 20.0255 15.7266 20.3627 11.2587H15.5576H15.6419Z" fill="black"/>
<path d="M5.35782 11.2587H0.552734C0.889933 15.6423 4.00902 19.2671 8.22401 20.2787C6.53802 18.677 5.44212 15.3894 5.27352 11.2587H5.35782Z" fill="black"/>
<path d="M5.27352 9.74139C5.35782 5.695 6.53802 2.32301 8.22401 0.721313C4.00902 1.73291 0.889933 5.2735 0.552734 9.74139H5.35782H5.27352Z" fill="black"/>
</g>
<defs>
<clipPath id="clip0_336_154">
<rect width="21" height="21" fill="white"/>
</clipPath>
</defs>
</svg>
