<svg width="13" height="13" viewBox="0 0 13 13" fill="none" xmlns="http://www.w3.org/2000/svg">
<path d="M9.22217 3.61035H9.19873V3.58691C9.19873 1.93916 7.8582 0.598633 6.21045 0.598633C4.5627 0.598633 3.22217 1.93916 3.22217 3.58691V3.61035H3.19873C1.55098 3.61035 0.210449 4.95088 0.210449 6.59863C0.210449 8.24638 1.55098 9.58691 3.19873 9.58691H3.22217V9.61035C3.22217 11.2581 4.5627 12.5986 6.21045 12.5986C7.8582 12.5986 9.19873 11.2581 9.19873 9.61035V9.58691H9.22217C10.8699 9.58691 12.2104 8.24638 12.2104 6.59863C12.2104 4.95088 10.8699 3.61035 9.22217 3.61035ZM6.21045 1.30176C7.4705 1.30176 8.49561 2.32687 8.49561 3.58691V3.61035H7.6167V3.58691C7.6167 2.81151 6.98586 2.18066 6.21045 2.18066C5.43504 2.18066 4.8042 2.81151 4.8042 3.58691V7.30176H3.92529V3.58691C3.92529 2.32687 4.9504 1.30176 6.21045 1.30176ZM5.50732 9.58691H6.91357V9.61035C6.91357 9.99805 6.59815 10.3135 6.21045 10.3135C5.82275 10.3135 5.50732 9.99805 5.50732 9.61035V9.58691ZM6.91357 7.30176H5.50732V5.89551H6.91357V7.30176ZM6.91357 3.61035H5.50732V3.58691C5.50732 3.19921 5.82275 2.88379 6.21045 2.88379C6.59815 2.88379 6.91357 3.19921 6.91357 3.58691V3.61035ZM3.22217 7.30176H3.19873C2.81103 7.30176 2.49561 6.98634 2.49561 6.59863C2.49561 6.21093 2.81103 5.89551 3.19873 5.89551H3.22217V7.30176ZM0.913574 6.59863C0.913574 5.33859 1.93868 4.31348 3.19873 4.31348H3.22217V5.19238H3.19873C2.42332 5.19238 1.79248 5.82323 1.79248 6.59863C1.79248 7.37404 2.42332 8.00488 3.19873 8.00488H6.91357V8.88379H3.19873C1.93868 8.88379 0.913574 7.85868 0.913574 6.59863ZM6.21045 11.8955C4.9504 11.8955 3.92529 10.8704 3.92529 9.61035V9.58691H4.8042V9.61035C4.8042 10.3858 5.43504 11.0166 6.21045 11.0166C6.98586 11.0166 7.6167 10.3858 7.6167 9.61035V5.89551H8.49561V9.61035C8.49561 10.8704 7.4705 11.8955 6.21045 11.8955ZM9.19873 5.89551H9.22217C9.60987 5.89551 9.92529 6.21093 9.92529 6.59863C9.92529 6.98634 9.60987 7.30176 9.22217 7.30176H9.19873V5.89551ZM9.22217 8.88379H9.19873V8.00488H9.22217C9.99757 8.00488 10.6284 7.37404 10.6284 6.59863C10.6284 5.82323 9.99757 5.19238 9.22217 5.19238H5.50732V4.31348H9.22217C10.4822 4.31348 11.5073 5.33859 11.5073 6.59863C11.5073 7.85868 10.4822 8.88379 9.22217 8.88379Z" fill="#7B2BBE"/>
</svg>
