<svg xmlns="http://www.w3.org/2000/svg" version="1.1" xmlns:xlink="http://www.w3.org/1999/xlink" xmlns:svgjs="http://svgjs.dev/svgjs" width="1500" height="1500" viewBox="0 0 1500 1500"><g transform="matrix(1,0,0,1,0,0.0006423097586321092)"><svg viewBox="0 0 280 280" data-background-color="#ffffff" preserveAspectRatio="xMidYMid meet" height="1500" width="1500" xmlns="http://www.w3.org/2000/svg" xmlns:xlink="http://www.w3.org/1999/xlink"><g id="tight-bounds" transform="matrix(1,0,0,1,0,-0.00011989782160526374)"><svg viewBox="0 0 280 280" height="280" width="280"><g><svg viewBox="0 0 280 280" height="280" width="280"><g><svg viewBox="0 0 280 280" height="280" width="280"><g id="textblocktransform"><svg viewBox="0 0 280 280" height="280" width="280" id="textblock"><g><svg viewBox="0 0 280 280" height="280" width="280"><g transform="matrix(1,0,0,1,57.50420886156945,57.50420886156945)"><svg viewBox="0 0 164.9915822768611 164.9915822768611" height="164.9915822768611" width="164.9915822768611"><g id="icon-0"><circle r="82" cx="82.49579113843055" cy="82.49579113843055" fill="#0718c4" data-fill-palette-color="accent"></circle><svg xmlns="http://www.w3.org/2000/svg" xmlns:xlink="http://www.w3.org/1999/xlink" version="1.1" x="24.748737341529164" y="24.74873734152917" viewBox="26.22 4.945 47.751999999999995 90.055" enable-background="new 0 0 100 100" xml:space="preserve" height="115.49410759380275" width="115.49410759380275" class="icon-jxe-0" data-fill-palette-color="quaternary" id="jxe-0"><g fill="#ffffff" data-fill-palette-color="quaternary"><g fill="#ffffff" data-fill-palette-color="quaternary"><path d="M69.074 4.945H30.915L27.727 6.902C27.767 6.886 29.874 6.115 31.845 6.115 35.129 6.115 37.24 7.487 37.734 7.844 38.844 7.491 43.797 6.156 50.022 6.121 56.248 6.156 61.146 7.491 62.256 7.844 62.75 7.487 64.861 6.115 68.145 6.115 70.115 6.115 72.223 6.886 72.263 6.902z" fill="#ffffff" data-fill-palette-color="quaternary"></path></g></g><path d="M68.252 6.743C65.201 6.743 63.392 7.987 62.856 8.363V22.774H73.862V8.363C73.324 7.988 71.305 6.743 68.252 6.743" fill="#ffffff" data-fill-palette-color="quaternary"></path><path d="M50.086 6.743C43.859 6.743 39.075 8.091 37.94 8.449V22.774H62.17V8.45C61.017 8.094 56.318 6.743 50.086 6.743" fill="#ffffff" data-fill-palette-color="quaternary"></path><path d="M31.838 6.743C28.787 6.743 26.782 7.987 26.246 8.363V22.774H37.249V8.363C36.711 7.988 34.891 6.743 31.838 6.743" fill="#ffffff" data-fill-palette-color="quaternary"></path><polygon points="62.169,30.714 62.169,30.714 37.973,27.363 36.599,28.094 37.973,29.537 62.169,32.888 63.543,32.157 " fill="#ffffff" data-fill-palette-color="quaternary"></polygon><polygon points="62.169,34.985 62.169,34.985 37.973,31.634 36.599,32.365 37.973,33.808 62.169,37.159 63.543,36.428 " fill="#ffffff" data-fill-palette-color="quaternary"></polygon><polygon points="62.169,39.256 62.169,39.256 37.973,35.905 36.599,36.636 37.973,38.079 62.169,41.43 63.543,40.699 " fill="#ffffff" data-fill-palette-color="quaternary"></polygon><polygon points="62.169,43.527 62.169,43.527 37.973,40.176 36.599,40.907 37.973,42.35 62.169,45.701 63.543,44.97 " fill="#ffffff" data-fill-palette-color="quaternary"></polygon><polygon points="62.169,73.424 62.169,73.424 37.973,70.072 36.599,70.803 37.973,72.247 62.169,75.598 63.543,74.867 " fill="#ffffff" data-fill-palette-color="quaternary"></polygon><polygon points="62.169,77.695 62.169,77.695 37.973,74.343 36.599,75.074 37.973,76.518 62.169,79.869 63.543,79.138 " fill="#ffffff" data-fill-palette-color="quaternary"></polygon><polygon points="62.169,81.966 62.169,81.966 37.973,78.614 36.599,79.345 37.973,80.789 62.169,84.14 63.543,83.409 " fill="#ffffff" data-fill-palette-color="quaternary"></polygon><polygon points="62.169,86.237 62.169,86.237 37.973,82.885 36.599,83.616 37.973,85.06 62.169,88.411 63.543,87.68 " fill="#ffffff" data-fill-palette-color="quaternary"></polygon><polygon points="62.203,27.088 62.203,23.924 37.973,23.924 37.973,25.926 62.203,29.226 63.576,28.507 " fill="#ffffff" data-fill-palette-color="quaternary"></polygon><polygon points="37.973,86.889 36.599,87.607 37.973,89.026 37.973,92.114 37.973,92.19 38.104,92.19 42.971,95 57.204,95   62.071,92.19 62.203,92.19 62.203,92.114 62.203,91.654 62.203,90.188 " fill="#ffffff" data-fill-palette-color="quaternary"></polygon><g fill="#ffffff" data-fill-palette-color="quaternary"><g fill="#ffffff" data-fill-palette-color="quaternary"><path d="M69.17 47.183H57.731L37.973 44.446 36.599 45.177 37.973 46.62 44.919 47.182H30.903L27.706 48.97C27.746 48.955 29.86 48.251 31.836 48.251 35.129 48.251 37.247 49.505 37.742 49.831 38.855 49.508 43.822 48.288 50.065 48.257 56.308 48.289 61.22 49.508 62.333 49.831 62.828 49.505 64.945 48.251 68.239 48.251 70.215 48.251 72.328 48.955 72.369 48.97z" fill="#ffffff" data-fill-palette-color="quaternary"></path></g></g><g fill="#ffffff" data-fill-palette-color="quaternary"><g fill="#ffffff" data-fill-palette-color="quaternary"><path d="M72.367 65.548C72.327 65.563 70.213 66.267 68.237 66.267 64.944 66.267 62.826 65.013 62.331 64.687 61.218 65.01 56.306 66.23 50.063 66.261 43.82 66.229 38.853 65.01 37.74 64.687 37.245 65.013 35.128 66.267 31.834 66.267 29.858 66.267 27.745 65.563 27.704 65.548L30.901 67.336H37.362L37.971 67.976 62.167 71.327 63.541 70.596 62.167 69.153 49.05 67.336H69.17z" fill="#ffffff" data-fill-palette-color="quaternary"></path></g></g><path d="M68.346 48.858C65.286 48.858 63.275 49.995 62.738 50.338V64.218C63.275 64.561 65.286 65.698 68.346 65.698 71.408 65.698 73.432 64.56 73.972 64.217V50.338C73.432 49.996 71.407 48.858 68.346 48.858" fill="#ffffff" data-fill-palette-color="quaternary"></path><path d="M50.102 48.858C43.858 48.858 39.263 50.09 38.125 50.417L38.09 64.139C39.229 64.466 43.819 65.698 50.064 65.698 56.315 65.698 60.85 64.464 62.006 64.138L62.041 50.418C60.885 50.092 56.353 48.858 50.102 48.858" fill="#ffffff" data-fill-palette-color="quaternary"></path><path d="M31.828 48.858C28.768 48.858 26.757 49.995 26.22 50.338V64.218C26.757 64.561 28.768 65.698 31.828 65.698 34.89 65.698 36.914 64.56 37.454 64.217V50.338C36.914 49.996 34.89 48.858 31.828 48.858" fill="#ffffff" data-fill-palette-color="quaternary"></path></svg></g></svg></g><g id="text-0"><path d="M25.174 107.735l-19.983-6.604c0.146-0.509 0.307-1.07 0.481-1.686v0c0.155-0.535 0.34-1.161 0.555-1.878 0.217-0.724 0.466-1.509 0.747-2.357v0c0.506-1.532 1.157-2.822 1.951-3.868 0.801-1.044 1.746-1.835 2.835-2.373 1.089-0.537 2.328-0.807 3.718-0.811 1.383-0.006 2.913 0.268 4.589 0.823v0c1.682 0.556 3.085 1.269 4.208 2.139 1.121 0.877 1.97 1.874 2.548 2.99 0.576 1.123 0.881 2.356 0.915 3.699 0.036 1.336-0.195 2.756-0.692 4.262v0zM23.701 103.559l0.94-2.846c0.302-0.913 0.374-1.789 0.218-2.63-0.148-0.844-0.481-1.631-0.999-2.359-0.519-0.728-1.19-1.377-2.015-1.946-0.833-0.565-1.781-1.023-2.844-1.374v0c-1.226-0.405-2.345-0.63-3.358-0.676-1.014-0.039-1.921 0.089-2.719 0.382-0.792 0.295-1.463 0.75-2.013 1.363-0.548 0.607-0.973 1.367-1.274 2.281v0c-0.166 0.502-0.306 0.937-0.42 1.304-0.108 0.369-0.195 0.666-0.262 0.89v0c-0.069 0.274-0.126 0.501-0.171 0.681v0z" fill="#0718c4" data-fill-palette-color="primary"></path><path d="M32.033 89.093l-19.885-10.167 1.515-2.963 4.641 2.373 2.039 1.216 0.042-0.082c-0.021-0.095-0.042-0.303-0.063-0.623-0.028-0.323-0.029-0.705-0.004-1.147 0.029-0.448 0.101-0.928 0.216-1.44 0.112-0.521 0.292-1.023 0.539-1.506v0c0.397-0.777 0.863-1.402 1.399-1.877 0.536-0.474 1.121-0.804 1.755-0.988 0.638-0.191 1.304-0.236 2.001-0.134 0.706 0.098 1.431 0.338 2.177 0.72v0l9.613 4.914-1.515 2.963-9.319-4.765c-1.003-0.513-1.846-0.689-2.529-0.529-0.674 0.157-1.247 0.697-1.72 1.62v0c-0.225 0.44-0.396 0.873-0.514 1.299-0.12 0.417-0.204 0.798-0.249 1.145v0c-0.065 0.399-0.098 0.779-0.098 1.142v0l11.474 5.867z" fill="#0718c4" data-fill-palette-color="primary"></path><path d="M36.622 71.445v0c-0.697-0.502-1.215-1.028-1.555-1.577-0.336-0.555-0.52-1.141-0.551-1.756-0.031-0.615 0.079-1.255 0.33-1.92 0.245-0.67 0.605-1.38 1.078-2.131v0l1.872-2.917-1.003-0.723c-0.457-0.329-0.858-0.559-1.204-0.689-0.356-0.129-0.689-0.166-1-0.111-0.305 0.059-0.604 0.216-0.897 0.471-0.293 0.254-0.602 0.607-0.928 1.058v0c-0.325 0.451-0.584 0.917-0.777 1.396-0.193 0.479-0.341 0.914-0.444 1.304v0c-0.112 0.461-0.187 0.906-0.226 1.336v0c-0.398 0.001-0.756-0.032-1.072-0.099-0.32-0.061-0.595-0.132-0.824-0.213v0c-0.279-0.083-0.527-0.185-0.743-0.307v0c0.088-0.546 0.224-1.104 0.406-1.675v0c0.155-0.498 0.366-1.048 0.632-1.652 0.271-0.6 0.616-1.19 1.034-1.77v0c0.69-0.958 1.346-1.692 1.966-2.201 0.617-0.504 1.23-0.82 1.839-0.949 0.609-0.128 1.227-0.081 1.853 0.142 0.617 0.224 1.279 0.592 1.987 1.101v0l7.021 5.058 2.044-0.14 0.794 0.572-1.68 2.332-1.819 0.163-0.325 0.451c0.012 0.077 0.027 0.256 0.044 0.539 0.016 0.283 0.006 0.626-0.032 1.031-0.039 0.395-0.123 0.817-0.252 1.266-0.134 0.445-0.346 0.868-0.635 1.27v0c-0.454 0.63-0.96 1.133-1.519 1.508-0.559 0.376-1.141 0.621-1.747 0.735-0.616 0.115-1.234 0.097-1.854-0.053-0.629-0.149-1.234-0.432-1.813-0.85zM38.377 68.533v0c0.39 0.281 0.749 0.459 1.076 0.534 0.337 0.073 0.653 0.069 0.95-0.015 0.291-0.087 0.567-0.252 0.827-0.496 0.262-0.234 0.517-0.524 0.766-0.87v0c0.229-0.318 0.404-0.649 0.525-0.993 0.123-0.335 0.21-0.644 0.262-0.928v0c0.061-0.32 0.093-0.64 0.095-0.96v0l-3.385-2.439-1.657 2.653c-0.259 0.406-0.429 0.783-0.51 1.131-0.077 0.342-0.088 0.656-0.032 0.943 0.066 0.284 0.195 0.546 0.387 0.786 0.191 0.239 0.424 0.458 0.696 0.654z" fill="#0718c4" data-fill-palette-color="primary"></path><path d="M51.01 60.084l-9.418-8.977-1.756 0.02-1.267-1.208 1.969-2.066 1.789-0.13 0.246-0.392c0.007-0.097 0.046-0.293 0.117-0.586 0.066-0.298 0.179-0.641 0.339-1.028 0.151-0.387 0.355-0.8 0.612-1.239 0.256-0.448 0.574-0.871 0.953-1.269v0c0.597-0.626 1.225-1.096 1.883-1.407 0.653-0.307 1.315-0.464 1.985-0.471 0.67-0.006 1.327 0.136 1.97 0.427 0.653 0.29 1.283 0.725 1.89 1.303v0l7.814 7.449-2.303 2.416-7.576-7.222c-0.815-0.777-1.578-1.181-2.288-1.213-0.71-0.022-1.418 0.338-2.123 1.078v0c-0.351 0.368-0.643 0.739-0.877 1.114-0.239 0.37-0.43 0.715-0.573 1.034v0c-0.176 0.364-0.318 0.722-0.426 1.074v0l9.328 8.892z" fill="#0718c4" data-fill-palette-color="primary"></path><path d="M60.446 44.365v0c-0.526-0.678-0.875-1.329-1.046-1.953-0.166-0.628-0.176-1.241-0.032-1.839 0.144-0.599 0.431-1.182 0.859-1.749 0.425-0.573 0.97-1.153 1.637-1.739v0l2.621-2.269-0.758-0.976c-0.345-0.445-0.665-0.779-0.96-1.003-0.305-0.224-0.614-0.354-0.927-0.388-0.31-0.029-0.641 0.037-0.995 0.197-0.353 0.161-0.75 0.412-1.189 0.753v0c-0.44 0.341-0.819 0.714-1.139 1.119-0.32 0.405-0.586 0.78-0.796 1.126v0c-0.238 0.411-0.436 0.816-0.594 1.217v0c-0.382-0.112-0.716-0.244-1-0.398-0.29-0.149-0.533-0.295-0.73-0.437v0c-0.244-0.158-0.453-0.326-0.627-0.505v0c0.239-0.498 0.527-0.996 0.864-1.491v0c0.29-0.433 0.647-0.902 1.073-1.407 0.43-0.499 0.927-0.967 1.492-1.405v0c0.933-0.724 1.77-1.243 2.509-1.555 0.734-0.309 1.411-0.439 2.032-0.39 0.62 0.049 1.2 0.269 1.737 0.66 0.528 0.39 1.06 0.929 1.595 1.618v0l5.304 6.837 2 0.443 0.6 0.773-2.271 1.762-1.79-0.358-0.44 0.341c-0.01 0.077-0.047 0.254-0.11 0.529-0.064 0.276-0.171 0.602-0.322 0.98-0.149 0.368-0.349 0.749-0.6 1.144-0.255 0.389-0.577 0.735-0.968 1.037v0c-0.613 0.476-1.241 0.815-1.883 1.018-0.642 0.203-1.27 0.273-1.884 0.21-0.623-0.064-1.211-0.256-1.763-0.575-0.562-0.321-1.061-0.763-1.499-1.327zM62.953 42.068v0c0.295 0.38 0.588 0.652 0.881 0.816 0.302 0.165 0.607 0.25 0.915 0.255 0.304-0.001 0.615-0.081 0.933-0.242 0.318-0.151 0.645-0.357 0.981-0.618v0c0.309-0.24 0.571-0.508 0.785-0.804 0.212-0.286 0.384-0.559 0.514-0.816v0c0.149-0.29 0.27-0.588 0.362-0.894v0l-2.557-3.297-2.34 2.077c-0.363 0.316-0.633 0.63-0.809 0.94-0.171 0.306-0.27 0.605-0.296 0.895-0.017 0.292 0.032 0.579 0.148 0.863 0.116 0.284 0.277 0.559 0.483 0.825z" fill="#0718c4" data-fill-palette-color="primary"></path><path d="M76.282 37.373v0c-0.123-0.207-0.238-0.442-0.346-0.705v0c-0.09-0.218-0.184-0.478-0.283-0.779-0.095-0.295-0.171-0.617-0.226-0.967v0c0.477-0.084 0.967-0.194 1.468-0.332v0c0.42-0.113 0.87-0.256 1.35-0.429 0.474-0.17 0.921-0.379 1.341-0.628v0c0.372-0.221 0.711-0.438 1.015-0.65 0.301-0.219 0.535-0.457 0.702-0.716 0.166-0.258 0.244-0.552 0.232-0.88-0.014-0.319-0.15-0.697-0.409-1.135v0c-0.312-0.526-0.72-0.843-1.223-0.951-0.504-0.109-1.2-0.003-2.089 0.316v0c-0.922 0.331-1.745 0.532-2.469 0.602-0.719 0.067-1.361 0.028-1.925-0.115-0.555-0.142-1.042-0.384-1.461-0.727-0.413-0.346-0.766-0.767-1.061-1.263v0c-0.441-0.744-0.697-1.451-0.766-2.12-0.076-0.666 0.021-1.298 0.288-1.896 0.262-0.595 0.692-1.169 1.29-1.724 0.592-0.551 1.328-1.087 2.208-1.608v0c0.614-0.364 1.184-0.642 1.709-0.835 0.527-0.201 0.981-0.346 1.359-0.434v0c0.439-0.108 0.842-0.168 1.211-0.18v0c0.086 0.212 0.162 0.455 0.228 0.728v0c0.057 0.23 0.105 0.501 0.146 0.811 0.047 0.308 0.062 0.642 0.044 1.004v0c-0.32-0.002-0.669 0.037-1.044 0.117v0c-0.325 0.057-0.695 0.161-1.11 0.31-0.424 0.147-0.875 0.363-1.353 0.647v0c-0.372 0.221-0.704 0.442-0.996 0.663-0.298 0.225-0.522 0.466-0.673 0.723-0.157 0.261-0.222 0.555-0.196 0.882 0.027 0.328 0.168 0.707 0.424 1.138v0c0.13 0.219 0.275 0.396 0.435 0.532 0.161 0.136 0.369 0.224 0.624 0.265 0.255 0.04 0.579 0.028 0.972-0.038 0.383-0.068 0.873-0.198 1.469-0.391v0c0.926-0.31 1.729-0.511 2.409-0.603 0.686-0.095 1.29-0.074 1.811 0.064 0.518 0.132 0.976 0.379 1.374 0.742 0.399 0.362 0.777 0.845 1.134 1.447v0c0.385 0.65 0.634 1.297 0.744 1.942 0.102 0.642 0.046 1.282-0.167 1.92-0.21 0.628-0.599 1.245-1.164 1.852-0.563 0.613-1.328 1.207-2.297 1.782v0c-0.626 0.371-1.219 0.663-1.78 0.876-0.566 0.216-1.071 0.376-1.513 0.478v0c-0.511 0.135-0.989 0.223-1.436 0.265z" fill="#0718c4" data-fill-palette-color="primary"></path><path d="M90.526 30.348l-8.776-20.538 3.059-1.307 2.049 4.793 0.789 2.24 0.085-0.037c0.045-0.087 0.162-0.26 0.349-0.519 0.185-0.266 0.429-0.56 0.732-0.884 0.309-0.326 0.671-0.649 1.087-0.968 0.42-0.329 0.879-0.6 1.378-0.813v0c0.802-0.343 1.561-0.525 2.276-0.547 0.715-0.022 1.376 0.099 1.981 0.363 0.612 0.261 1.153 0.654 1.623 1.177 0.479 0.527 0.883 1.176 1.213 1.947v0l4.242 9.927-3.06 1.308-4.112-9.625c-0.443-1.036-0.978-1.711-1.605-2.025-0.618-0.311-1.404-0.263-2.358 0.145v0c-0.455 0.194-0.863 0.418-1.226 0.67-0.359 0.243-0.667 0.483-0.925 0.72v0c-0.305 0.265-0.574 0.536-0.806 0.814v0l5.064 11.851z" fill="#0718c4" data-fill-palette-color="primary"></path><path d="M102.582 8.553l2.751-0.758 1.986 1.195c0.043-0.283 0.12-0.56 0.23-0.833 0.117-0.274 0.268-0.526 0.454-0.756 0.184-0.236 0.412-0.445 0.682-0.626 0.264-0.18 0.571-0.318 0.923-0.414v0c0.291-0.08 0.576-0.134 0.853-0.16 0.282-0.035 0.598-0.04 0.947-0.016v0c0.019 0.016 0.054 0.092 0.105 0.228 0.052 0.135 0.107 0.309 0.165 0.521v0c0.044 0.159 0.085 0.347 0.124 0.564 0.04 0.224 0.067 0.452 0.081 0.683 0.022 0.236 0.021 0.475-0.005 0.717-0.024 0.249-0.08 0.471-0.169 0.667v0l-0.259 0.146c-0.226-0.045-0.471-0.066-0.734-0.065-0.265-0.005-0.527 0.028-0.785 0.099v0c-0.397 0.109-0.724 0.228-0.981 0.355-0.255 0.134-0.457 0.254-0.607 0.36v0c-0.18 0.121-0.317 0.244-0.411 0.369v0l3.295 11.958-3.208 0.884-3.456-12.544-1.516-0.886z" fill="#0718c4" data-fill-palette-color="primary"></path><path d="M117.206 13.416v0c-0.225-1.473-0.24-2.77-0.043-3.891 0.191-1.113 0.556-2.062 1.096-2.846 0.54-0.784 1.234-1.405 2.081-1.861 0.839-0.462 1.795-0.775 2.868-0.939v0c0.991-0.152 1.906-0.122 2.745 0.09 0.832 0.213 1.565 0.58 2.201 1.102 0.629 0.522 1.153 1.178 1.572 1.968 0.414 0.798 0.698 1.703 0.854 2.715v0c0.053 0.346 0.085 0.671 0.097 0.975 0.018 0.296 0.023 0.556 0.015 0.779v0c-0.002 0.257-0.014 0.496-0.037 0.714v0l-10.058 1.488c0.146 0.909 0.356 1.648 0.631 2.217 0.275 0.569 0.622 0.999 1.041 1.289 0.414 0.298 0.906 0.473 1.477 0.524 0.577 0.051 1.243 0.018 1.997-0.097v0c0.645-0.099 1.216-0.228 1.712-0.387 0.497-0.159 0.917-0.321 1.26-0.485v0c0.388-0.191 0.735-0.394 1.043-0.607v0c0.204 0.337 0.374 0.651 0.509 0.943 0.135 0.292 0.241 0.55 0.317 0.775v0c0.081 0.259 0.148 0.488 0.199 0.688v0c-0.313 0.222-0.701 0.437-1.162 0.647v0c-0.39 0.178-0.873 0.359-1.449 0.545-0.576 0.185-1.254 0.338-2.035 0.458v0c-1.229 0.188-2.34 0.216-3.333 0.082-0.999-0.125-1.876-0.453-2.631-0.983-0.754-0.524-1.382-1.268-1.884-2.234-0.495-0.966-0.856-2.189-1.083-3.669zM120.295 11.463l7.026-1.075-0.08-0.519c-0.099-0.645-0.267-1.203-0.506-1.674-0.232-0.472-0.513-0.853-0.842-1.142-0.324-0.298-0.689-0.506-1.096-0.625-0.406-0.112-0.83-0.134-1.271-0.066v0c-0.638 0.098-1.192 0.269-1.662 0.515-0.464 0.238-0.834 0.565-1.11 0.983-0.278 0.411-0.454 0.917-0.528 1.519-0.076 0.595-0.053 1.29 0.069 2.084z" fill="#0718c4" data-fill-palette-color="primary"></path><path d="M135.188 11.141v0c-0.018-1.49 0.149-2.777 0.5-3.859 0.344-1.076 0.838-1.964 1.482-2.665 0.644-0.701 1.417-1.219 2.32-1.553 0.896-0.34 1.886-0.517 2.971-0.53v0c1.003-0.012 1.904 0.145 2.705 0.472 0.794 0.327 1.469 0.793 2.026 1.398 0.55 0.605 0.978 1.328 1.283 2.168 0.299 0.848 0.454 1.784 0.466 2.807v0c0.004 0.35-0.009 0.677-0.04 0.979-0.024 0.296-0.055 0.554-0.093 0.774v0c-0.038 0.255-0.083 0.489-0.136 0.702v0l-10.168 0.071c0.018 0.92 0.123 1.681 0.316 2.283 0.193 0.602 0.477 1.076 0.852 1.422 0.368 0.353 0.831 0.594 1.389 0.725 0.565 0.131 1.228 0.191 1.991 0.182v0c0.652-0.008 1.236-0.056 1.749-0.144 0.514-0.089 0.952-0.19 1.315-0.305v0c0.41-0.135 0.783-0.288 1.118-0.456v0c0.155 0.362 0.28 0.697 0.372 1.005 0.093 0.308 0.161 0.578 0.206 0.812v0c0.044 0.267 0.078 0.504 0.101 0.709v0c-0.341 0.176-0.755 0.335-1.241 0.479v0c-0.411 0.122-0.914 0.234-1.51 0.337-0.596 0.103-1.289 0.16-2.079 0.169v0c-1.243 0.015-2.347-0.113-3.312-0.382-0.972-0.263-1.794-0.71-2.468-1.341-0.674-0.624-1.192-1.449-1.554-2.474-0.356-1.026-0.543-2.287-0.561-3.785zM138.518 9.638l7.108-0.085-0.006-0.525c-0.008-0.652-0.097-1.228-0.268-1.728-0.164-0.499-0.389-0.916-0.675-1.249-0.279-0.34-0.612-0.597-0.998-0.771-0.387-0.167-0.803-0.248-1.25-0.242v0c-0.646 0.008-1.218 0.1-1.717 0.278-0.492 0.171-0.905 0.444-1.237 0.818-0.332 0.368-0.577 0.845-0.734 1.431-0.158 0.579-0.232 1.27-0.223 2.073z" fill="#0718c4" data-fill-palette-color="primary"></path><path d="M163.731 20.612l4.302-20.612 11.829 2.469c-0.014 0.067-0.026 0.142-0.036 0.224v0c-0.002 0.077-0.012 0.159-0.03 0.246-0.01 0.082-0.026 0.174-0.047 0.275v0c-0.036 0.175-0.125 0.43-0.265 0.765-0.14 0.336-0.369 0.709-0.686 1.12v0c-0.833-0.209-1.698-0.421-2.593-0.636v0c-0.762-0.18-1.604-0.381-2.527-0.601-0.929-0.222-1.837-0.426-2.724-0.611v0l-1.299 6.222c0.289 0.06 0.619 0.129 0.988 0.206 0.371 0.07 0.76 0.141 1.166 0.212 0.398 0.076 0.8 0.149 1.207 0.22 0.405 0.077 0.804 0.15 1.196 0.219v0c0.893 0.158 1.812 0.326 2.758 0.501v0c-0.017 0.081-0.028 0.166-0.033 0.257v0c-0.01 0.082-0.023 0.178-0.039 0.286-0.016 0.109-0.036 0.221-0.059 0.335v0c-0.01 0.047-0.04 0.142-0.091 0.286-0.044 0.145-0.102 0.305-0.174 0.48-0.071 0.174-0.15 0.348-0.235 0.519-0.085 0.172-0.17 0.312-0.256 0.42v0c-0.941-0.196-1.845-0.389-2.71-0.576v0c-0.376-0.079-0.763-0.159-1.16-0.242-0.397-0.083-0.776-0.165-1.138-0.248-0.368-0.084-0.721-0.161-1.056-0.231-0.336-0.07-0.629-0.131-0.878-0.183v0l-1.42 6.806c0.887 0.185 1.829 0.364 2.824 0.537 0.994 0.179 1.918 0.341 2.772 0.484v0c1.003 0.167 1.991 0.324 2.964 0.472v0c-0.02 0.094-0.037 0.192-0.051 0.294v0c-0.003 0.083-0.017 0.182-0.041 0.297-0.019 0.122-0.039 0.237-0.062 0.345v0c-0.045 0.215-0.117 0.491-0.215 0.828-0.105 0.336-0.25 0.692-0.433 1.068v0z" fill="#0718c4" data-fill-palette-color="primary"></path><path d="M179.762 24.612l4.481-12.215-0.718-1.603 0.603-1.644 2.679 0.983 0.833 1.589 0.457 0.069c0.092-0.032 0.287-0.074 0.584-0.126 0.299-0.058 0.659-0.091 1.078-0.098 0.415-0.016 0.875 0.007 1.38 0.067 0.513 0.057 1.028 0.179 1.544 0.369v0c0.812 0.298 1.493 0.687 2.041 1.166 0.542 0.477 0.949 1.021 1.222 1.633 0.273 0.612 0.404 1.271 0.394 1.977-0.006 0.715-0.153 1.465-0.442 2.252v0l-3.718 10.136-3.133-1.15 3.604-9.826c0.388-1.057 0.455-1.918 0.201-2.582-0.263-0.66-0.875-1.166-1.835-1.518v0c-0.477-0.175-0.934-0.295-1.371-0.36-0.435-0.072-0.827-0.109-1.176-0.113v0c-0.404-0.016-0.789-0.004-1.155 0.037v0l-4.438 12.099z" fill="#0718c4" data-fill-palette-color="primary"></path><path d="M197.891 31.843l0.174-0.315c-0.071-0.369-0.063-0.757 0.022-1.166 0.085-0.408 0.232-0.802 0.441-1.18v0c0.23-0.415 0.461-0.761 0.694-1.041 0.227-0.282 0.438-0.507 0.632-0.674v0c0.211-0.197 0.419-0.353 0.624-0.467v0l0.344-0.622c-0.19-0.678-0.252-1.38-0.188-2.106 0.068-0.732 0.334-1.518 0.8-2.36v0c0.422-0.763 0.932-1.372 1.529-1.826 0.591-0.458 1.246-0.762 1.966-0.913 0.714-0.154 1.479-0.155 2.297-0.001 0.808 0.157 1.639 0.472 2.491 0.944v0l0.009 0.005c0.601 0.333 1.085 0.628 1.453 0.887 0.37 0.268 0.66 0.495 0.87 0.682v0c0.255 0.22 0.444 0.418 0.565 0.595v0l4.046 1.711-1.217 2.199-2.208-1.223c0.051 0.177 0.086 0.397 0.106 0.659 0.02 0.262 0.019 0.54-0.003 0.835-0.028 0.291-0.082 0.587-0.162 0.888-0.078 0.31-0.191 0.601-0.341 0.871v0c-0.416 0.751-0.939 1.348-1.569 1.792-0.628 0.453-1.323 0.759-2.086 0.917-0.754 0.156-1.556 0.159-2.408 0.01-0.845-0.146-1.689-0.452-2.529-0.918v0l-0.009-0.005c-0.192-0.106-0.393-0.226-0.603-0.357-0.206-0.138-0.419-0.279-0.637-0.424-0.209-0.147-0.409-0.297-0.599-0.449-0.194-0.146-0.363-0.287-0.508-0.422v0l-1.033 1.865c-0.057 0.102-0.075 0.206-0.055 0.311 0.026 0.109 0.074 0.214 0.144 0.315 0.06 0.104 0.144 0.201 0.251 0.292 0.104 0.097 0.209 0.175 0.317 0.235v0l5.353 2.964c0.643 0.356 1.134 0.745 1.473 1.168 0.339 0.423 0.555 0.869 0.649 1.337 0.097 0.477 0.077 0.973-0.058 1.487-0.129 0.517-0.345 1.049-0.648 1.596v0c-0.379 0.685-0.895 1.255-1.547 1.71-0.646 0.459-1.394 0.759-2.242 0.902-0.848 0.143-1.785 0.111-2.809-0.095-1.024-0.206-2.107-0.625-3.248-1.257v0l-0.019-0.01c-0.937-0.519-1.722-1.087-2.353-1.704-0.626-0.613-1.096-1.239-1.411-1.876-0.311-0.643-0.467-1.283-0.468-1.919-0.001-0.636 0.157-1.24 0.473-1.811v0c0.21-0.379 0.494-0.7 0.852-0.965 0.358-0.265 0.715-0.476 1.068-0.633v0c0.407-0.183 0.845-0.329 1.315-0.438zM205.356 27.993l0.009 0.005c0.535 0.296 1.02 0.498 1.455 0.606 0.441 0.111 0.847 0.116 1.217 0.014 0.376-0.098 0.728-0.308 1.055-0.629 0.318-0.319 0.631-0.757 0.94-1.316v0c0.566-1.021 0.737-1.884 0.515-2.589-0.222-0.704-0.868-1.352-1.938-1.944v0l-0.009-0.005c-0.547-0.303-1.029-0.503-1.446-0.6-0.42-0.091-0.799-0.081-1.136 0.031-0.334 0.121-0.646 0.337-0.935 0.647-0.284 0.314-0.569 0.729-0.855 1.246v0c-0.279 0.505-0.482 0.97-0.607 1.395-0.128 0.416-0.152 0.807-0.073 1.173 0.071 0.369 0.25 0.711 0.538 1.028 0.294 0.32 0.717 0.633 1.27 0.938zM197.594 34.847v0c-0.133 0.24-0.235 0.51-0.306 0.807-0.074 0.304-0.051 0.631 0.069 0.981 0.115 0.346 0.356 0.711 0.724 1.096 0.365 0.39 0.923 0.793 1.674 1.209v0l0.009 0.005c0.715 0.396 1.386 0.658 2.014 0.785 0.628 0.128 1.191 0.153 1.689 0.076 0.498-0.077 0.925-0.238 1.279-0.481 0.361-0.24 0.632-0.525 0.816-0.856v0c0.236-0.427 0.335-0.804 0.296-1.131-0.042-0.321-0.225-0.572-0.549-0.752v0l-6.066-3.358c-0.175 0.06-0.426 0.223-0.753 0.49-0.328 0.266-0.626 0.642-0.896 1.129z" fill="#0718c4" data-fill-palette-color="primary"></path><path d="M224.642 26.706v0c-0.236-0.166-0.428-0.364-0.577-0.595-0.149-0.23-0.247-0.472-0.296-0.724-0.059-0.251-0.068-0.506-0.03-0.764 0.044-0.254 0.144-0.491 0.298-0.71v0c0.162-0.23 0.355-0.409 0.58-0.537 0.234-0.129 0.481-0.212 0.74-0.248 0.25-0.034 0.507-0.017 0.771 0.051 0.267 0.062 0.519 0.176 0.754 0.342v0c0.242 0.17 0.437 0.37 0.585 0.6 0.158 0.229 0.266 0.469 0.325 0.72 0.049 0.253 0.052 0.511 0.01 0.775-0.039 0.258-0.139 0.502-0.302 0.733v0c-0.154 0.219-0.346 0.391-0.576 0.514-0.23 0.124-0.47 0.203-0.72 0.236-0.26 0.035-0.526 0.02-0.799-0.045-0.267-0.062-0.521-0.178-0.763-0.348zM214.057 38.657l7.58-10.777 2.638 1.855-7.616 10.827 0.377 1.059-1.126 1.601-0.725-0.51-0.008-0.043-0.017 0.025c-0.837-0.589-1.367-1.214-1.591-1.875-0.224-0.661-0.061-1.382 0.488-2.162z" fill="#0718c4" data-fill-palette-color="primary"></path><path d="M219.885 46.553l8.669-9.702-0.077-1.754 1.167-1.306 2.128 1.902 0.188 1.784 0.4 0.233c0.098 0.004 0.294 0.037 0.589 0.098 0.3 0.056 0.646 0.158 1.039 0.306 0.392 0.138 0.811 0.329 1.258 0.572 0.456 0.242 0.889 0.546 1.298 0.912v0c0.645 0.577 1.134 1.189 1.468 1.836 0.328 0.643 0.506 1.299 0.534 1.969 0.028 0.67-0.093 1.331-0.363 1.983-0.269 0.662-0.683 1.305-1.241 1.93v0l-7.193 8.051-2.489-2.224 6.973-7.805c0.75-0.84 1.13-1.615 1.139-2.326-0.001-0.71-0.383-1.406-1.146-2.088v0c-0.379-0.339-0.76-0.619-1.142-0.84-0.378-0.227-0.728-0.407-1.051-0.539v0c-0.369-0.164-0.732-0.294-1.088-0.391v0l-8.586 9.61z" fill="#0718c4" data-fill-palette-color="primary"></path><path d="M238.521 53.573v0c1.148-0.95 2.253-1.629 3.316-2.037 1.053-0.408 2.055-0.582 3.005-0.521 0.95 0.06 1.839 0.337 2.666 0.829 0.828 0.483 1.587 1.142 2.279 1.977v0c0.639 0.772 1.084 1.573 1.333 2.401 0.244 0.823 0.306 1.641 0.186 2.454-0.125 0.808-0.418 1.595-0.881 2.361-0.472 0.765-1.102 1.474-1.891 2.127v0c-0.27 0.223-0.532 0.418-0.786 0.584-0.245 0.167-0.465 0.305-0.661 0.414v0c-0.222 0.13-0.433 0.242-0.632 0.335v0l-6.444-7.865c-0.705 0.592-1.23 1.152-1.578 1.681-0.347 0.528-0.538 1.047-0.571 1.556-0.043 0.508 0.06 1.02 0.309 1.536 0.253 0.521 0.623 1.076 1.11 1.663v0c0.416 0.503 0.82 0.926 1.212 1.27 0.392 0.344 0.746 0.621 1.063 0.832v0c0.363 0.234 0.716 0.428 1.057 0.582v0c-0.184 0.348-0.367 0.656-0.548 0.922-0.181 0.266-0.348 0.489-0.502 0.67v0c-0.18 0.203-0.343 0.377-0.488 0.524v0c-0.351-0.155-0.735-0.377-1.152-0.664v0c-0.353-0.243-0.757-0.564-1.212-0.963-0.455-0.399-0.934-0.903-1.438-1.511v0c-0.793-0.958-1.387-1.896-1.783-2.816-0.406-0.921-0.575-1.842-0.509-2.763 0.062-0.916 0.378-1.837 0.949-2.764 0.575-0.921 1.438-1.86 2.591-2.814zM241.783 55.219l4.533 5.475 0.405-0.335c0.503-0.416 0.894-0.847 1.175-1.294 0.285-0.441 0.468-0.878 0.548-1.309 0.089-0.431 0.08-0.851-0.028-1.261-0.113-0.406-0.312-0.781-0.596-1.125v0c-0.412-0.497-0.844-0.884-1.296-1.161-0.442-0.276-0.914-0.425-1.414-0.447-0.495-0.027-1.02 0.082-1.574 0.327-0.549 0.241-1.134 0.618-1.753 1.13z" fill="#0718c4" data-fill-palette-color="primary"></path><path d="M249.712 67.831v0c1.269-0.781 2.458-1.299 3.567-1.555 1.1-0.257 2.116-0.29 3.049-0.097 0.933 0.192 1.774 0.59 2.524 1.192 0.752 0.593 1.413 1.352 1.981 2.277v0c0.525 0.854 0.854 1.708 0.985 2.563 0.127 0.849 0.075 1.668-0.158 2.456-0.236 0.782-0.637 1.521-1.202 2.215-0.574 0.692-1.297 1.306-2.168 1.842v0c-0.298 0.184-0.585 0.34-0.861 0.469-0.266 0.131-0.503 0.237-0.712 0.317v0c-0.238 0.098-0.462 0.18-0.672 0.245v0l-5.285-8.687c-0.78 0.488-1.379 0.97-1.796 1.444-0.418 0.475-0.678 0.962-0.782 1.461-0.113 0.497-0.083 1.019 0.091 1.565 0.178 0.552 0.467 1.152 0.867 1.801v0c0.342 0.556 0.683 1.031 1.023 1.427 0.34 0.395 0.652 0.719 0.936 0.972v0c0.327 0.283 0.649 0.524 0.966 0.724v0c-0.231 0.319-0.454 0.598-0.671 0.836-0.216 0.238-0.413 0.436-0.59 0.593v0c-0.207 0.175-0.392 0.326-0.557 0.452v0c-0.326-0.202-0.676-0.475-1.048-0.819v0c-0.315-0.29-0.671-0.664-1.066-1.122-0.395-0.458-0.799-1.024-1.213-1.697v0c-0.651-1.059-1.109-2.071-1.373-3.038-0.274-0.969-0.313-1.904-0.118-2.806 0.189-0.898 0.63-1.767 1.324-2.605 0.697-0.832 1.684-1.641 2.959-2.425zM252.712 69.915l3.725 6.054 0.448-0.275c0.556-0.342 1.004-0.714 1.344-1.118 0.344-0.397 0.586-0.804 0.725-1.22 0.148-0.414 0.198-0.831 0.149-1.252-0.055-0.418-0.2-0.816-0.434-1.197v0c-0.338-0.55-0.712-0.993-1.121-1.33-0.4-0.335-0.845-0.548-1.338-0.641-0.486-0.096-1.021-0.061-1.605 0.105-0.578 0.162-1.209 0.453-1.893 0.874z" fill="#0718c4" data-fill-palette-color="primary"></path><path d="M266.345 80.106l1.188 2.594-0.862 2.151c0.286-0.002 0.572 0.029 0.859 0.094 0.29 0.071 0.562 0.181 0.818 0.328 0.262 0.144 0.505 0.335 0.728 0.573 0.219 0.232 0.405 0.513 0.556 0.844v0c0.126 0.275 0.224 0.547 0.295 0.817 0.08 0.273 0.135 0.584 0.166 0.932v0c-0.013 0.021-0.082 0.068-0.208 0.141-0.125 0.073-0.288 0.155-0.488 0.246v0c-0.15 0.069-0.329 0.139-0.537 0.212-0.215 0.076-0.435 0.139-0.661 0.189-0.229 0.06-0.466 0.096-0.709 0.11-0.249 0.016-0.478-0.004-0.685-0.061v0l-0.185-0.232c0.008-0.23-0.01-0.475-0.054-0.735-0.037-0.262-0.111-0.515-0.223-0.759v0c-0.172-0.375-0.341-0.679-0.508-0.912-0.173-0.23-0.324-0.411-0.451-0.541v0c-0.148-0.159-0.292-0.274-0.431-0.346v0l-11.277 5.163-1.385-3.025 11.829-5.417 0.633-1.637z" fill="#0718c4" data-fill-palette-color="primary"></path><path d="M257.244 97.68v0c0.228-0.076 0.482-0.139 0.762-0.189v0c0.232-0.041 0.506-0.079 0.821-0.112 0.308-0.031 0.64-0.036 0.994-0.017v0c-0.019 0.484-0.014 0.986 0.014 1.505v0c0.022 0.434 0.067 0.904 0.134 1.411 0.066 0.499 0.176 0.98 0.331 1.443v0c0.137 0.41 0.277 0.787 0.421 1.13 0.15 0.341 0.334 0.62 0.551 0.837 0.217 0.217 0.488 0.355 0.811 0.413 0.315 0.054 0.713 0.001 1.196-0.161v0c0.58-0.194 0.976-0.525 1.188-0.994 0.212-0.469 0.257-1.172 0.132-2.108v0c-0.129-0.971-0.151-1.818-0.067-2.541 0.086-0.717 0.26-1.336 0.52-1.857 0.256-0.513 0.595-0.938 1.019-1.275 0.425-0.33 0.912-0.587 1.458-0.769v0c0.821-0.274 1.566-0.375 2.235-0.302 0.667 0.067 1.264 0.294 1.792 0.683 0.526 0.382 0.996 0.923 1.412 1.625 0.413 0.695 0.782 1.527 1.106 2.497v0c0.226 0.677 0.378 1.293 0.454 1.847 0.085 0.558 0.131 1.032 0.138 1.42v0c0.013 0.452-0.013 0.859-0.08 1.222v0c-0.226 0.039-0.479 0.062-0.759 0.069v0c-0.237 0.007-0.511-0.003-0.825-0.029-0.311-0.019-0.641-0.076-0.99-0.168v0c0.069-0.313 0.105-0.661 0.107-1.046v0c0.013-0.33-0.01-0.713-0.07-1.15-0.055-0.445-0.17-0.932-0.346-1.459v0c-0.137-0.41-0.283-0.782-0.437-1.114-0.157-0.339-0.345-0.609-0.564-0.811-0.222-0.208-0.495-0.334-0.822-0.377-0.326-0.043-0.726 0.015-1.202 0.173v0c-0.241 0.081-0.445 0.185-0.612 0.314-0.167 0.128-0.297 0.313-0.39 0.554-0.093 0.241-0.149 0.56-0.169 0.958-0.015 0.389 0.009 0.895 0.073 1.518v0c0.107 0.971 0.134 1.798 0.08 2.482-0.052 0.691-0.2 1.276-0.445 1.756-0.239 0.478-0.577 0.873-1.016 1.187-0.438 0.313-0.99 0.581-1.654 0.802v0c-0.717 0.239-1.402 0.345-2.055 0.318-0.649-0.036-1.263-0.226-1.841-0.569-0.569-0.338-1.091-0.848-1.565-1.53-0.48-0.679-0.899-1.553-1.256-2.622v0c-0.231-0.69-0.391-1.332-0.481-1.925-0.092-0.599-0.141-1.126-0.147-1.579v0c-0.024-0.528-0.009-1.014 0.044-1.46z" fill="#0718c4" data-fill-palette-color="primary"></path><path d="M10.065 141.328c0-1.419 1.15-2.569 2.569-2.569 1.419 0 2.569 1.15 2.57 2.569 0 1.419-1.15 2.569-2.57 2.57-1.419 0-2.569-1.15-2.569-2.57z" fill="#0718c4" data-fill-palette-color="primary"></path><path d="M269.67 141.328c0-1.419 1.15-2.569 2.57-2.569 1.419 0 2.569 1.15 2.569 2.569 0 1.419-1.15 2.569-2.569 2.57-1.419 0-2.569-1.15-2.57-2.57z" fill="#0718c4" data-fill-palette-color="primary"></path></g><g id="text-1"><path d="M10.126 179.895l19.983-6.605c0.185 0.496 0.392 1.042 0.618 1.641v0c0.194 0.522 0.418 1.135 0.673 1.839 0.257 0.711 0.525 1.49 0.805 2.338v0c0.506 1.532 0.753 2.956 0.738 4.269-0.021 1.316-0.308 2.514-0.863 3.594-0.554 1.08-1.389 2.036-2.502 2.867-1.108 0.829-2.499 1.52-4.175 2.074v0c-1.682 0.556-3.234 0.819-4.654 0.79-1.422-0.036-2.699-0.331-3.829-0.883-1.132-0.559-2.112-1.367-2.939-2.425-0.825-1.051-1.486-2.33-1.984-3.836v0zM13.797 182.37l0.941 2.846c0.302 0.913 0.766 1.66 1.392 2.242 0.622 0.59 1.358 1.023 2.208 1.299 0.851 0.276 1.777 0.397 2.778 0.362 1.006-0.043 2.04-0.24 3.103-0.591v0c1.226-0.405 2.259-0.891 3.098-1.458 0.838-0.573 1.49-1.216 1.957-1.927 0.46-0.709 0.728-1.474 0.804-2.295 0.078-0.814-0.034-1.678-0.336-2.59v0c-0.166-0.502-0.313-0.935-0.439-1.298-0.134-0.361-0.24-0.651-0.321-0.871v0c-0.108-0.261-0.197-0.477-0.268-0.649v0z" fill="#0718c4" data-fill-palette-color="primary"></path><path d="M17.922 200.778l19.885-10.167 1.515 2.962-4.641 2.373-2.18 0.941 0.042 0.083c0.089 0.039 0.27 0.143 0.542 0.313 0.278 0.166 0.589 0.389 0.932 0.669 0.347 0.286 0.694 0.625 1.041 1.018 0.357 0.396 0.659 0.836 0.906 1.319v0c0.397 0.777 0.631 1.521 0.702 2.232 0.071 0.712-0.004 1.379-0.226 2.002-0.219 0.629-0.573 1.195-1.063 1.7-0.493 0.514-1.112 0.962-1.858 1.344v0l-9.613 4.915-1.515-2.963 9.319-4.765c1.003-0.513 1.64-1.093 1.91-1.74 0.268-0.638 0.165-1.419-0.306-2.342v0c-0.225-0.44-0.476-0.833-0.753-1.177-0.267-0.342-0.528-0.633-0.782-0.873v0c-0.285-0.286-0.575-0.535-0.868-0.748v0l-11.474 5.867z" fill="#0718c4" data-fill-palette-color="primary"></path><path d="M31.118 215.176v0c0.697-0.502 1.359-0.827 1.989-0.976 0.633-0.143 1.247-0.132 1.839 0.034 0.593 0.165 1.166 0.472 1.718 0.921 0.557 0.445 1.117 1.011 1.679 1.697v0l2.174 2.7 1.003-0.722c0.457-0.329 0.802-0.637 1.036-0.924 0.235-0.296 0.376-0.601 0.421-0.913 0.04-0.308-0.014-0.642-0.162-1.001-0.148-0.359-0.385-0.764-0.71-1.215v0c-0.325-0.451-0.684-0.844-1.078-1.179-0.393-0.335-0.759-0.613-1.097-0.835v0c-0.402-0.252-0.8-0.465-1.195-0.637v0c0.125-0.378 0.27-0.706 0.433-0.985 0.159-0.284 0.314-0.522 0.463-0.714v0c0.167-0.239 0.342-0.441 0.527-0.608v0c0.49 0.257 0.976 0.562 1.46 0.916v0c0.423 0.305 0.879 0.679 1.367 1.122 0.483 0.448 0.934 0.961 1.351 1.541v0c0.69 0.958 1.179 1.813 1.466 2.563 0.282 0.745 0.388 1.426 0.317 2.044-0.071 0.618-0.311 1.189-0.721 1.713-0.408 0.514-0.966 1.026-1.674 1.536v0l-7.021 5.058-0.515 1.983-0.794 0.572-1.68-2.332 0.422-1.777-0.325-0.451c-0.077-0.012-0.252-0.056-0.525-0.13-0.273-0.074-0.596-0.193-0.968-0.356-0.362-0.162-0.736-0.375-1.121-0.64-0.38-0.268-0.714-0.603-1.003-1.004v0c-0.454-0.63-0.77-1.269-0.95-1.918-0.18-0.649-0.228-1.279-0.143-1.891 0.086-0.621 0.299-1.201 0.637-1.741 0.34-0.55 0.8-1.034 1.38-1.451zM33.325 217.763v0c-0.39 0.281-0.672 0.565-0.847 0.852-0.176 0.296-0.272 0.598-0.288 0.905-0.01 0.303 0.06 0.617 0.209 0.941 0.139 0.323 0.334 0.657 0.582 1.003v0c0.229 0.318 0.487 0.588 0.776 0.812 0.279 0.222 0.545 0.403 0.797 0.543v0c0.284 0.159 0.578 0.291 0.881 0.394v0l3.385-2.439-1.991-2.412c-0.303-0.374-0.607-0.655-0.912-0.842-0.3-0.182-0.595-0.291-0.883-0.328-0.291-0.028-0.58 0.012-0.868 0.118-0.288 0.106-0.568 0.257-0.841 0.453z" fill="#0718c4" data-fill-palette-color="primary"></path><path d="M39.538 233.508l9.417-8.978 0.064-1.754 1.268-1.208 1.969 2.065 0.044 1.794 0.38 0.264c0.097 0.012 0.29 0.06 0.58 0.145 0.294 0.08 0.631 0.209 1.01 0.388 0.38 0.169 0.782 0.393 1.208 0.67 0.435 0.278 0.843 0.615 1.222 1.013v0c0.597 0.626 1.036 1.276 1.316 1.948 0.275 0.667 0.4 1.336 0.375 2.006-0.026 0.67-0.199 1.319-0.521 1.947-0.321 0.638-0.785 1.247-1.391 1.825v0l-7.815 7.449-2.303-2.416 7.576-7.222c0.815-0.777 1.256-1.52 1.321-2.227 0.056-0.708-0.269-1.432-0.975-2.173v0c-0.351-0.368-0.708-0.678-1.071-0.929-0.358-0.256-0.693-0.464-1.005-0.621v0c-0.355-0.193-0.706-0.352-1.052-0.477v0l-9.329 8.892z" fill="#0718c4" data-fill-palette-color="primary"></path><path d="M56.287 243.651v0c0.526-0.678 1.07-1.178 1.632-1.499 0.567-0.316 1.158-0.479 1.774-0.488 0.616-0.009 1.252 0.123 1.908 0.398 0.66 0.269 1.358 0.653 2.091 1.153v0l2.848 1.976 0.758-0.977c0.345-0.445 0.589-0.838 0.733-1.179 0.142-0.351 0.19-0.682 0.146-0.995-0.049-0.307-0.195-0.612-0.439-0.914-0.244-0.302-0.585-0.624-1.025-0.965v0c-0.44-0.341-0.895-0.616-1.367-0.826-0.472-0.21-0.901-0.373-1.288-0.49v0c-0.457-0.128-0.899-0.219-1.326-0.274v0c0.013-0.398 0.059-0.754 0.137-1.067 0.072-0.318 0.153-0.59 0.242-0.816v0c0.092-0.276 0.204-0.52 0.333-0.732v0c0.542 0.108 1.095 0.263 1.659 0.466v0c0.492 0.173 1.035 0.403 1.629 0.69 0.59 0.293 1.167 0.658 1.732 1.096v0c0.933 0.724 1.643 1.405 2.13 2.044 0.481 0.634 0.776 1.258 0.882 1.871 0.107 0.613 0.038 1.229-0.207 1.847-0.246 0.609-0.637 1.258-1.171 1.946v0l-5.305 6.837 0.068 2.048-0.6 0.773-2.271-1.762-0.098-1.823-0.44-0.341c-0.077 0.01-0.257 0.018-0.54 0.024-0.283 0.006-0.626-0.016-1.029-0.068-0.393-0.053-0.812-0.152-1.256-0.297-0.44-0.15-0.855-0.377-1.246-0.68v0c-0.613-0.476-1.098-0.999-1.454-1.571-0.356-0.572-0.58-1.163-0.672-1.773-0.093-0.62-0.053-1.237 0.119-1.851 0.171-0.624 0.475-1.218 0.913-1.781zM59.136 245.508v0c-0.295 0.38-0.485 0.732-0.572 1.056-0.085 0.334-0.092 0.65-0.02 0.95 0.076 0.294 0.232 0.575 0.467 0.844 0.225 0.27 0.506 0.536 0.842 0.797v0c0.309 0.24 0.634 0.427 0.974 0.56 0.33 0.135 0.636 0.233 0.918 0.295v0c0.318 0.072 0.636 0.116 0.956 0.129v0l2.558-3.296-2.593-1.751c-0.397-0.273-0.767-0.456-1.112-0.55-0.339-0.089-0.653-0.111-0.941-0.064-0.287 0.056-0.553 0.175-0.799 0.357-0.246 0.183-0.472 0.407-0.678 0.673z" fill="#0718c4" data-fill-palette-color="primary"></path><path d="M68.922 257.692v0c0.123-0.207 0.273-0.421 0.452-0.642v0c0.149-0.183 0.331-0.39 0.548-0.621 0.213-0.225 0.46-0.446 0.741-0.663v0c0.302 0.379 0.634 0.755 0.995 1.129v0c0.301 0.314 0.642 0.64 1.024 0.979 0.376 0.335 0.774 0.627 1.194 0.876v0c0.372 0.221 0.725 0.414 1.057 0.579 0.336 0.16 0.658 0.25 0.965 0.273 0.306 0.022 0.601-0.051 0.884-0.219 0.274-0.165 0.54-0.466 0.799-0.903v0c0.312-0.526 0.395-1.036 0.248-1.529-0.146-0.494-0.572-1.054-1.278-1.681v0c-0.732-0.65-1.303-1.276-1.713-1.878-0.403-0.599-0.677-1.18-0.822-1.745-0.142-0.555-0.163-1.099-0.063-1.631 0.106-0.528 0.306-1.04 0.6-1.536v0c0.441-0.744 0.939-1.307 1.494-1.69 0.548-0.386 1.149-0.604 1.802-0.655 0.648-0.055 1.358 0.047 2.13 0.305 0.767 0.255 1.59 0.644 2.471 1.166v0c0.614 0.364 1.131 0.731 1.551 1.1 0.429 0.366 0.774 0.695 1.033 0.984v0c0.306 0.333 0.552 0.659 0.739 0.977v0c-0.145 0.177-0.321 0.36-0.529 0.548v0c-0.175 0.16-0.389 0.332-0.643 0.518-0.248 0.189-0.534 0.362-0.859 0.52v0c-0.152-0.282-0.353-0.569-0.603-0.861v0c-0.206-0.258-0.474-0.533-0.805-0.824-0.332-0.301-0.738-0.593-1.216-0.878v0c-0.372-0.221-0.725-0.406-1.06-0.556-0.34-0.154-0.659-0.235-0.957-0.244-0.304-0.013-0.593 0.071-0.868 0.251-0.275 0.18-0.54 0.486-0.795 0.918v0c-0.13 0.219-0.216 0.431-0.259 0.637-0.043 0.206-0.02 0.431 0.067 0.675 0.087 0.243 0.254 0.522 0.499 0.835 0.243 0.304 0.592 0.671 1.048 1.1v0c0.716 0.664 1.277 1.273 1.684 1.826 0.413 0.556 0.683 1.096 0.812 1.619 0.132 0.518 0.135 1.038 0.008 1.562-0.127 0.524-0.369 1.087-0.726 1.689v0c-0.385 0.65-0.834 1.178-1.347 1.585-0.515 0.397-1.103 0.655-1.765 0.773-0.652 0.116-1.38 0.072-2.184-0.133-0.808-0.2-1.696-0.587-2.665-1.162v0c-0.626-0.371-1.167-0.752-1.622-1.142-0.461-0.393-0.843-0.76-1.145-1.098v0c-0.364-0.383-0.67-0.761-0.921-1.133z" fill="#0718c4" data-fill-palette-color="primary"></path><path d="M84.298 266.883l8.776-20.538 3.06 1.308-2.049 4.793-1.073 2.118 0.086 0.037c0.094-0.027 0.299-0.063 0.616-0.107 0.32-0.05 0.702-0.077 1.145-0.082 0.449-0.002 0.933 0.036 1.451 0.116 0.528 0.076 1.041 0.221 1.54 0.434v0c0.802 0.343 1.458 0.765 1.968 1.267 0.51 0.502 0.879 1.063 1.107 1.683 0.234 0.623 0.325 1.285 0.271 1.987-0.05 0.711-0.239 1.451-0.568 2.221v0l-4.243 9.928-3.059-1.308 4.112-9.624c0.443-1.036 0.561-1.889 0.355-2.56-0.203-0.662-0.781-1.196-1.735-1.604v0c-0.455-0.194-0.899-0.335-1.331-0.423-0.424-0.092-0.81-0.148-1.16-0.17v0c-0.402-0.037-0.784-0.044-1.145-0.02v0l-5.064 11.851z" fill="#0718c4" data-fill-palette-color="primary"></path><path d="M106.882 258.496l2.751 0.758 1.093 2.043c0.182-0.221 0.39-0.42 0.625-0.598 0.241-0.176 0.5-0.315 0.777-0.416 0.279-0.108 0.581-0.171 0.906-0.188 0.319-0.019 0.653 0.02 1.005 0.116v0c0.291 0.08 0.563 0.18 0.815 0.299 0.261 0.115 0.534 0.272 0.821 0.472v0c0.008 0.024-0.001 0.107-0.026 0.25-0.025 0.143-0.067 0.32-0.125 0.531v0c-0.044 0.159-0.105 0.342-0.183 0.548-0.08 0.213-0.173 0.422-0.28 0.629-0.102 0.214-0.226 0.419-0.372 0.613-0.148 0.201-0.31 0.363-0.487 0.486v0l-0.297-0.007c-0.171-0.154-0.37-0.298-0.597-0.432-0.225-0.14-0.466-0.246-0.725-0.317v0c-0.397-0.109-0.739-0.175-1.024-0.197-0.288-0.015-0.523-0.016-0.705-0.002v0c-0.217 0.011-0.398 0.047-0.543 0.107v0l-3.294 11.958-3.208-0.884 3.456-12.544-0.848-1.537z" fill="#0718c4" data-fill-palette-color="primary"></path><path d="M117.159 269.551v0c0.225-1.473 0.6-2.715 1.123-3.726 0.515-1.005 1.148-1.801 1.897-2.388 0.75-0.587 1.597-0.971 2.542-1.153 0.939-0.19 1.945-0.203 3.018-0.039v0c0.991 0.152 1.855 0.454 2.592 0.908 0.73 0.452 1.32 1.022 1.77 1.709 0.444 0.686 0.748 1.469 0.912 2.349 0.156 0.885 0.157 1.834 0.002 2.845v0c-0.053 0.346-0.119 0.666-0.199 0.96-0.072 0.288-0.145 0.537-0.219 0.748v0c-0.079 0.245-0.162 0.468-0.248 0.671v0l-10.043-1.59c-0.132 0.911-0.153 1.679-0.061 2.305 0.092 0.625 0.295 1.139 0.608 1.541 0.306 0.408 0.723 0.722 1.253 0.942 0.536 0.221 1.181 0.389 1.934 0.505v0c0.645 0.099 1.228 0.146 1.75 0.143 0.522-0.004 0.971-0.032 1.347-0.086v0c0.427-0.067 0.819-0.156 1.177-0.268v0c0.094 0.383 0.162 0.734 0.203 1.053 0.041 0.319 0.065 0.597 0.071 0.834v0c0 0.271-0.005 0.51-0.016 0.716v0c-0.365 0.118-0.8 0.208-1.303 0.27v0c-0.425 0.053-0.94 0.082-1.545 0.086-0.605 0.005-1.298-0.053-2.079-0.172v0c-1.229-0.188-2.297-0.494-3.204-0.918-0.916-0.418-1.654-0.993-2.217-1.725-0.563-0.725-0.94-1.624-1.13-2.695-0.184-1.07-0.162-2.345 0.065-3.825zM120.69 268.611l7.026 1.076 0.079-0.52c0.099-0.645 0.105-1.228 0.018-1.748-0.08-0.519-0.234-0.967-0.462-1.342-0.22-0.381-0.506-0.689-0.859-0.923-0.354-0.228-0.752-0.376-1.193-0.443v0c-0.638-0.098-1.218-0.1-1.739-0.006-0.514 0.088-0.965 0.29-1.354 0.605-0.388 0.309-0.707 0.739-0.959 1.292-0.25 0.545-0.436 1.215-0.557 2.009z" fill="#0718c4" data-fill-palette-color="primary"></path><path d="M135.184 271.829v0c0.018-1.49 0.215-2.772 0.593-3.846 0.37-1.067 0.885-1.943 1.546-2.629 0.661-0.686 1.446-1.185 2.356-1.497 0.904-0.319 1.898-0.472 2.983-0.458v0c1.003 0.012 1.9 0.191 2.693 0.537 0.786 0.346 1.45 0.828 1.991 1.446 0.535 0.618 0.945 1.351 1.231 2.199 0.278 0.855 0.411 1.794 0.399 2.817v0c-0.004 0.35-0.025 0.676-0.063 0.978-0.031 0.295-0.068 0.552-0.113 0.771v0c-0.044 0.254-0.095 0.486-0.152 0.699v0l-10.167-0.174c-0.004 0.92 0.083 1.684 0.261 2.29 0.178 0.607 0.451 1.087 0.817 1.442 0.36 0.361 0.817 0.614 1.372 0.759 0.561 0.144 1.223 0.221 1.985 0.229v0c0.652 0.008 1.237-0.026 1.753-0.102 0.516-0.076 0.957-0.167 1.322-0.273v0c0.414-0.126 0.79-0.269 1.128-0.429v0c0.147 0.366 0.263 0.704 0.348 1.014 0.086 0.31 0.148 0.582 0.186 0.816v0c0.038 0.268 0.066 0.506 0.085 0.712v0c-0.345 0.168-0.763 0.317-1.252 0.448v0c-0.413 0.112-0.919 0.212-1.519 0.301-0.599 0.089-1.293 0.129-2.082 0.12v0c-1.243-0.015-2.343-0.169-3.302-0.462-0.965-0.286-1.777-0.753-2.435-1.4-0.659-0.64-1.157-1.477-1.494-2.511-0.331-1.034-0.487-2.3-0.47-3.797zM138.55 270.406l7.107 0.086 0.007-0.525c0.008-0.652-0.068-1.23-0.227-1.734-0.152-0.503-0.367-0.925-0.644-1.265-0.271-0.347-0.597-0.612-0.979-0.794-0.383-0.176-0.797-0.267-1.244-0.273v0c-0.646-0.008-1.22 0.071-1.723 0.237-0.496 0.159-0.915 0.422-1.256 0.789-0.341 0.36-0.597 0.831-0.769 1.412-0.172 0.575-0.262 1.264-0.272 2.067z" fill="#0718c4" data-fill-palette-color="primary"></path><path d="M166.969 277.559l-4.302-20.613 11.829-2.469c0.014 0.067 0.033 0.14 0.056 0.22v0c0.029 0.071 0.052 0.15 0.071 0.238 0.024 0.079 0.046 0.169 0.067 0.27v0c0.036 0.175 0.058 0.444 0.063 0.808 0.006 0.364-0.055 0.797-0.181 1.3v0c-0.847 0.142-1.724 0.293-2.631 0.455v0c-0.771 0.14-1.623 0.293-2.556 0.459-0.94 0.168-1.854 0.345-2.741 0.531v0l1.299 6.222c0.289-0.06 0.619-0.129 0.988-0.207 0.368-0.084 0.753-0.175 1.153-0.272 0.395-0.09 0.793-0.183 1.194-0.281 0.402-0.091 0.797-0.184 1.184-0.278v0c0.882-0.212 1.791-0.427 2.728-0.644v0c0.017 0.081 0.041 0.163 0.073 0.248v0c0.024 0.079 0.05 0.172 0.079 0.278 0.029 0.106 0.056 0.216 0.079 0.331v0c0.01 0.047 0.02 0.147 0.031 0.299 0.017 0.151 0.028 0.32 0.033 0.509 0.004 0.189 0.002 0.378-0.008 0.57-0.009 0.191-0.031 0.354-0.066 0.487v0c-0.941 0.196-1.846 0.382-2.715 0.556v0c-0.376 0.079-0.763 0.159-1.16 0.242-0.397 0.083-0.777 0.159-1.141 0.228-0.371 0.07-0.725 0.141-1.061 0.211-0.336 0.07-0.629 0.131-0.878 0.183v0l1.421 6.807c0.887-0.185 1.822-0.398 2.803-0.638 0.983-0.233 1.894-0.455 2.734-0.665v0c0.987-0.248 1.955-0.499 2.905-0.754v0c0.02 0.094 0.043 0.191 0.071 0.29v0c0.03 0.078 0.057 0.174 0.082 0.289 0.032 0.12 0.059 0.233 0.081 0.34v0c0.045 0.215 0.09 0.497 0.135 0.846 0.038 0.35 0.048 0.734 0.029 1.151v0z" fill="#0718c4" data-fill-palette-color="primary"></path><path d="M185.22 272.924l-4.48-12.215-1.584-0.758-0.603-1.644 2.679-0.983 1.663 0.674 0.393-0.243c0.05-0.084 0.171-0.242 0.364-0.473 0.191-0.238 0.444-0.496 0.759-0.773 0.307-0.281 0.672-0.561 1.096-0.841 0.428-0.289 0.9-0.528 1.416-0.717v0c0.812-0.298 1.583-0.442 2.311-0.43 0.722 0.013 1.385 0.165 1.989 0.455 0.604 0.291 1.13 0.708 1.579 1.254 0.457 0.549 0.83 1.217 1.119 2.003v0l3.718 10.136-3.134 1.149-3.604-9.826c-0.388-1.057-0.893-1.757-1.517-2.099-0.627-0.333-1.421-0.324-2.381 0.029v0c-0.477 0.175-0.903 0.379-1.279 0.611-0.378 0.226-0.701 0.451-0.971 0.675v0c-0.318 0.249-0.604 0.507-0.857 0.775v0l4.439 12.099z" fill="#0718c4" data-fill-palette-color="primary"></path><path d="M205.298 264.192l-0.175-0.316c-0.35-0.136-0.676-0.348-0.976-0.636-0.301-0.289-0.556-0.622-0.766-1.001v0c-0.23-0.415-0.401-0.795-0.514-1.141-0.119-0.342-0.198-0.64-0.236-0.893v0c-0.055-0.284-0.077-0.542-0.065-0.777v0l-0.344-0.622c-0.675-0.199-1.304-0.519-1.885-0.958-0.584-0.446-1.109-1.089-1.575-1.93v0c-0.422-0.763-0.668-1.518-0.736-2.266-0.074-0.744 0.015-1.461 0.269-2.151 0.248-0.687 0.654-1.335 1.219-1.946 0.562-0.602 1.269-1.138 2.122-1.611v0l0.009-0.005c0.601-0.333 1.108-0.586 1.522-0.76 0.423-0.171 0.77-0.297 1.041-0.376v0c0.322-0.1 0.59-0.154 0.804-0.163v0l3.597-2.521 1.218 2.199-2.208 1.222c0.177 0.051 0.382 0.138 0.615 0.261 0.233 0.122 0.468 0.271 0.705 0.445 0.232 0.178 0.454 0.381 0.667 0.608 0.222 0.23 0.408 0.481 0.557 0.751v0c0.416 0.751 0.645 1.511 0.686 2.282 0.051 0.773-0.059 1.524-0.329 2.255-0.268 0.721-0.691 1.403-1.27 2.045-0.573 0.639-1.279 1.191-2.121 1.657v0l-0.009 0.005c-0.192 0.106-0.4 0.214-0.623 0.321-0.226 0.102-0.459 0.207-0.696 0.315-0.236 0.099-0.469 0.189-0.699 0.269-0.227 0.086-0.436 0.155-0.628 0.207v0l1.033 1.865c0.057 0.102 0.135 0.173 0.235 0.212 0.106 0.036 0.22 0.051 0.343 0.045 0.12 0.004 0.247-0.015 0.38-0.057 0.137-0.036 0.259-0.085 0.368-0.145v0l5.353-2.964c0.643-0.356 1.234-0.565 1.772-0.628 0.538-0.063 1.031-0.01 1.478 0.16 0.456 0.171 0.866 0.451 1.229 0.838 0.37 0.384 0.706 0.85 1.009 1.396v0c0.379 0.685 0.589 1.425 0.628 2.219 0.046 0.791-0.096 1.584-0.426 2.379-0.329 0.795-0.853 1.571-1.571 2.33-0.718 0.759-1.648 1.454-2.79 2.086v0l-0.018 0.01c-0.937 0.519-1.835 0.883-2.693 1.091-0.852 0.205-1.632 0.271-2.339 0.2-0.71-0.078-1.335-0.285-1.875-0.622-0.54-0.337-0.968-0.791-1.284-1.362v0c-0.21-0.379-0.331-0.79-0.365-1.234-0.034-0.444-0.024-0.858 0.031-1.242v0c0.061-0.442 0.17-0.891 0.326-1.346zM205.998 255.821l0.009-0.005c0.535-0.296 0.963-0.6 1.285-0.912 0.328-0.315 0.547-0.656 0.657-1.023 0.117-0.371 0.126-0.78 0.027-1.228-0.101-0.438-0.307-0.937-0.616-1.496v0c-0.566-1.021-1.206-1.625-1.92-1.81-0.715-0.185-1.607 0.018-2.677 0.611v0l-0.009 0.005c-0.547 0.303-0.972 0.605-1.276 0.907-0.301 0.308-0.493 0.634-0.577 0.978-0.075 0.347-0.057 0.726 0.053 1.137 0.115 0.407 0.316 0.869 0.602 1.386v0c0.279 0.505 0.566 0.923 0.86 1.255 0.284 0.329 0.603 0.557 0.955 0.683 0.35 0.136 0.736 0.166 1.157 0.09 0.427-0.079 0.917-0.272 1.47-0.578zM207.686 266.037v0c0.133 0.24 0.307 0.47 0.522 0.689 0.218 0.224 0.508 0.378 0.868 0.461 0.354 0.087 0.792 0.076 1.313-0.032 0.524-0.102 1.162-0.361 1.913-0.777v0l0.009-0.005c0.715-0.396 1.293-0.826 1.735-1.29 0.442-0.464 0.762-0.928 0.96-1.391 0.199-0.463 0.289-0.91 0.271-1.34-0.012-0.433-0.11-0.815-0.292-1.145v0c-0.236-0.427-0.503-0.71-0.801-0.851-0.295-0.135-0.604-0.113-0.929 0.066v0l-6.065 3.358c-0.042 0.18-0.037 0.48 0.014 0.899 0.051 0.419 0.212 0.872 0.482 1.358z" fill="#0718c4" data-fill-palette-color="primary"></path><path d="M212.436 238.597v0c-0.236 0.166-0.487 0.28-0.754 0.342-0.267 0.062-0.528 0.073-0.783 0.033-0.256-0.03-0.499-0.107-0.729-0.23-0.224-0.128-0.413-0.301-0.567-0.52v0c-0.162-0.23-0.265-0.473-0.31-0.727-0.043-0.264-0.037-0.524 0.018-0.781 0.053-0.247 0.156-0.483 0.308-0.708 0.149-0.23 0.341-0.429 0.577-0.594v0c0.242-0.17 0.496-0.286 0.763-0.348 0.269-0.071 0.531-0.092 0.787-0.063 0.254 0.039 0.498 0.124 0.732 0.254 0.23 0.124 0.426 0.301 0.588 0.531v0c0.154 0.219 0.251 0.458 0.289 0.716 0.039 0.258 0.032 0.511-0.021 0.758-0.055 0.257-0.159 0.502-0.313 0.736-0.149 0.23-0.344 0.431-0.585 0.601zM220.105 252.598l-7.58-10.777 2.638-1.855 7.615 10.828 1.124 0.003 1.126 1.601-0.725 0.51-0.043-0.008 0.018 0.026c-0.837 0.589-1.604 0.877-2.302 0.863-0.698-0.013-1.321-0.41-1.871-1.191z" fill="#0718c4" data-fill-palette-color="primary"></path><path d="M230.445 247.921l-8.669-9.702-1.751-0.12-1.167-1.306 2.128-1.902 1.794 0.014 0.276-0.371c0.015-0.096 0.07-0.288 0.164-0.575 0.089-0.292 0.23-0.624 0.42-0.998 0.182-0.374 0.418-0.769 0.709-1.185 0.291-0.426 0.642-0.822 1.052-1.189v0c0.645-0.577 1.308-0.994 1.989-1.252 0.676-0.254 1.348-0.357 2.017-0.31 0.669 0.047 1.312 0.242 1.929 0.583 0.628 0.342 1.221 0.825 1.779 1.449v0l7.194 8.051-2.489 2.224-6.974-7.805c-0.75-0.84-1.478-1.304-2.183-1.392-0.706-0.079-1.44 0.223-2.204 0.905v0c-0.379 0.339-0.7 0.685-0.963 1.04-0.268 0.35-0.486 0.678-0.653 0.985v0c-0.204 0.348-0.375 0.694-0.511 1.036v0l8.587 9.61z" fill="#0718c4" data-fill-palette-color="primary"></path><path d="M238.763 229.284v0c-1.148-0.95-2.021-1.91-2.619-2.878-0.598-0.958-0.955-1.91-1.074-2.855-0.118-0.945-0.013-1.869 0.317-2.773 0.32-0.903 0.826-1.773 1.517-2.609v0c0.639-0.772 1.343-1.358 2.11-1.757 0.763-0.394 1.555-0.607 2.377-0.641 0.817-0.028 1.645 0.113 2.483 0.425 0.84 0.321 1.654 0.808 2.442 1.46v0c0.27 0.223 0.51 0.445 0.721 0.664 0.21 0.209 0.386 0.4 0.53 0.572v0c0.169 0.194 0.319 0.38 0.448 0.558v0l-6.524 7.799c0.713 0.582 1.362 0.994 1.945 1.236 0.584 0.243 1.129 0.333 1.636 0.271 0.507-0.053 0.991-0.249 1.451-0.591 0.465-0.346 0.94-0.813 1.427-1.4v0c0.416-0.503 0.757-0.979 1.021-1.428 0.265-0.449 0.471-0.849 0.619-1.199v0c0.162-0.401 0.287-0.783 0.375-1.148v0c0.377 0.116 0.713 0.238 1.007 0.366 0.295 0.128 0.546 0.251 0.752 0.369v0c0.233 0.139 0.435 0.266 0.607 0.381v0c-0.087 0.374-0.233 0.793-0.438 1.256v0c-0.173 0.392-0.413 0.849-0.72 1.37-0.307 0.522-0.712 1.087-1.216 1.695v0c-0.793 0.958-1.604 1.717-2.434 2.278-0.829 0.571-1.702 0.909-2.619 1.015-0.912 0.11-1.876-0.028-2.892-0.415-1.012-0.392-2.095-1.066-3.249-2.021zM239.771 225.772l4.533-5.475-0.404-0.335c-0.503-0.416-0.999-0.72-1.491-0.914-0.487-0.198-0.95-0.296-1.389-0.293-0.44-0.007-0.851 0.08-1.233 0.262-0.378 0.187-0.709 0.452-0.994 0.796v0c-0.412 0.497-0.711 0.994-0.898 1.49-0.188 0.486-0.247 0.977-0.176 1.472 0.066 0.491 0.271 0.987 0.615 1.486 0.339 0.495 0.818 0.998 1.437 1.511z" fill="#0718c4" data-fill-palette-color="primary"></path><path d="M249.979 214.99v0c-1.269-0.781-2.268-1.609-2.995-2.484-0.725-0.866-1.212-1.758-1.461-2.677-0.249-0.919-0.273-1.849-0.073-2.791 0.191-0.939 0.57-1.871 1.139-2.794v0c0.525-0.854 1.14-1.532 1.844-2.035 0.701-0.496 1.455-0.818 2.264-0.965 0.805-0.142 1.644-0.117 2.518 0.074 0.876 0.201 1.75 0.569 2.622 1.105v0c0.298 0.184 0.567 0.369 0.807 0.557 0.237 0.178 0.438 0.342 0.604 0.492v0c0.195 0.168 0.368 0.332 0.521 0.49v0l-5.372 8.633c0.787 0.476 1.487 0.794 2.099 0.953 0.612 0.159 1.164 0.172 1.656 0.04 0.495-0.123 0.947-0.385 1.355-0.787 0.412-0.408 0.818-0.936 1.218-1.586v0c0.342-0.556 0.613-1.074 0.812-1.556 0.2-0.482 0.348-0.907 0.446-1.274v0c0.105-0.419 0.175-0.815 0.211-1.189v0c0.389 0.062 0.739 0.136 1.049 0.222 0.31 0.086 0.575 0.173 0.795 0.26v0c0.25 0.105 0.468 0.203 0.654 0.294v0c-0.034 0.382-0.12 0.817-0.258 1.304v0c-0.117 0.412-0.29 0.898-0.522 1.457-0.231 0.559-0.554 1.175-0.967 1.848v0c-0.651 1.059-1.349 1.924-2.093 2.595-0.741 0.681-1.559 1.137-2.452 1.37-0.887 0.236-1.861 0.234-2.922-0.008-1.057-0.247-2.224-0.763-3.499-1.548zM250.488 211.372l3.725-6.054-0.447-0.275c-0.556-0.342-1.09-0.574-1.604-0.696-0.51-0.128-0.982-0.161-1.416-0.098-0.436 0.054-0.831 0.198-1.185 0.432-0.348 0.238-0.639 0.546-0.872 0.927v0c-0.338 0.55-0.566 1.083-0.683 1.6-0.119 0.508-0.108 1.002 0.031 1.483 0.134 0.477 0.406 0.939 0.817 1.385 0.405 0.443 0.95 0.875 1.634 1.296z" fill="#0718c4" data-fill-palette-color="primary"></path><path d="M251.626 195.811l1.188-2.595 2.191-0.752c-0.189-0.215-0.352-0.452-0.49-0.712-0.135-0.266-0.231-0.544-0.286-0.834-0.062-0.293-0.076-0.601-0.041-0.925 0.032-0.318 0.124-0.642 0.275-0.973v0c0.126-0.275 0.268-0.527 0.426-0.756 0.155-0.239 0.354-0.484 0.597-0.735v0c0.024-0.004 0.105 0.018 0.242 0.065 0.137 0.048 0.305 0.117 0.505 0.209v0c0.15 0.069 0.32 0.158 0.512 0.268 0.197 0.113 0.389 0.239 0.575 0.377 0.195 0.135 0.377 0.29 0.546 0.465 0.175 0.178 0.309 0.364 0.402 0.558v0l-0.055 0.292c-0.179 0.144-0.353 0.318-0.521 0.52-0.174 0.2-0.317 0.421-0.429 0.665v0c-0.172 0.375-0.291 0.701-0.359 0.98-0.061 0.282-0.099 0.514-0.114 0.696v0c-0.023 0.216-0.017 0.4 0.019 0.552v0l11.277 5.164-1.385 3.025-11.83-5.416-1.653 0.591z" fill="#0718c4" data-fill-palette-color="primary"></path><path d="M270.928 189.548v0c-0.228-0.076-0.469-0.178-0.723-0.306v0c-0.211-0.107-0.452-0.241-0.723-0.405-0.265-0.161-0.533-0.355-0.804-0.584v0c0.306-0.375 0.604-0.779 0.893-1.211v0c0.243-0.36 0.49-0.763 0.741-1.208 0.248-0.439 0.449-0.889 0.603-1.351v0c0.137-0.41 0.251-0.796 0.343-1.157 0.085-0.363 0.106-0.696 0.063-1-0.043-0.304-0.177-0.577-0.4-0.818-0.219-0.233-0.57-0.429-1.052-0.59v0c-0.58-0.194-1.096-0.167-1.548 0.08-0.452 0.247-0.909 0.782-1.372 1.605v0c-0.481 0.853-0.972 1.543-1.474 2.071-0.5 0.521-1.011 0.911-1.532 1.172-0.513 0.256-1.039 0.391-1.58 0.406-0.539 0.008-1.081-0.079-1.629-0.262v0c-0.821-0.274-1.476-0.642-1.967-1.102-0.493-0.454-0.833-0.995-1.022-1.624-0.191-0.621-0.241-1.337-0.151-2.146 0.087-0.803 0.293-1.691 0.618-2.662v0c0.226-0.677 0.475-1.26 0.747-1.748 0.267-0.497 0.515-0.903 0.743-1.218v0c0.261-0.369 0.527-0.678 0.799-0.928v0c0.204 0.104 0.42 0.238 0.648 0.401v0c0.193 0.137 0.407 0.31 0.642 0.519 0.237 0.202 0.467 0.446 0.69 0.73v0c-0.243 0.208-0.481 0.466-0.714 0.771v0c-0.209 0.256-0.421 0.576-0.636 0.961-0.224 0.389-0.424 0.847-0.601 1.374v0c-0.137 0.41-0.244 0.795-0.32 1.153-0.078 0.365-0.091 0.694-0.036 0.987 0.052 0.3 0.195 0.565 0.429 0.795 0.234 0.23 0.589 0.425 1.065 0.584v0c0.241 0.081 0.467 0.12 0.677 0.118 0.211-0.002 0.426-0.071 0.646-0.208 0.219-0.137 0.456-0.358 0.71-0.664 0.246-0.302 0.53-0.721 0.855-1.257v0c0.498-0.84 0.974-1.517 1.428-2.032 0.456-0.521 0.927-0.9 1.411-1.135 0.478-0.239 0.986-0.351 1.525-0.338 0.539 0.013 1.14 0.131 1.805 0.353v0c0.717 0.239 1.328 0.567 1.833 0.982 0.497 0.42 0.873 0.94 1.129 1.561 0.251 0.613 0.362 1.334 0.331 2.163-0.025 0.832-0.215 1.782-0.572 2.85v0c-0.231 0.69-0.488 1.299-0.773 1.827-0.287 0.534-0.564 0.984-0.832 1.352v0c-0.298 0.436-0.602 0.816-0.913 1.139z" fill="#0718c4" data-fill-palette-color="primary"></path></g></svg></g></svg></g></svg></g></svg></g><defs></defs></svg><rect width="280" height="280" fill="none" stroke="none" visibility="hidden"></rect></g></svg></g></svg>