<svg width="45" height="46" viewBox="0 0 45 46" fill="none" xmlns="http://www.w3.org/2000/svg">
<circle cx="22.4922" cy="23.25" r="22.5" fill="#631f9e"/>
<path d="M37.7816 33.7096L29.6558 21.6217L27.3671 25.0547L23.3877 19.3836V16.9191H32.9003L30.6606 12.4397L32.9003 7.96033H21.596C21.596 9.1187 21.596 17.9287 21.596 19.3583L17.6046 25.0546L15.3279 21.6397L7.20215 33.7275V34.9562H10.6958L8.99391 37.3433V38.5397H35.9898V37.343L34.2731 34.8965H37.7816V33.7096ZM23.3877 9.75209H30.0011L28.6573 12.4397L30.0011 15.1274H23.3877C23.3877 14.47 23.3877 10.3293 23.3877 9.75209ZM22.4834 21.2142L26.7955 27.3594L25.2527 29.0214L22.4919 25.3404L19.7312 29.0212L18.1827 27.3519L22.4834 21.2142ZM9.76771 33.1645L15.3217 24.8605L16.5011 26.6295L11.9513 33.1645H9.76771ZM11.5989 36.748L17.131 28.8529L19.8771 31.813L22.4919 28.3267L25.1063 31.8127L27.8479 28.8593L33.3834 36.748H11.5989ZM33.0158 33.1047L28.4714 26.6284L29.662 24.8426L35.216 33.1047H33.0158Z" fill="#f7e7ff"/>
</svg>
