<svg width="25" height="25" viewBox="0 0 25 25" fill="none" xmlns="http://www.w3.org/2000/svg">
<path fill-rule="evenodd" clip-rule="evenodd" d="M17.1874 2.34375C16.6921 2.34358 16.2028 2.4521 15.754 2.66166C15.3052 2.87121 14.9078 3.17668 14.59 3.55654C14.2721 3.93639 14.0414 4.38137 13.9143 4.86008C13.7871 5.33878 13.7666 5.83956 13.8541 6.32708L8.92698 9.77708C8.90234 9.79412 8.87869 9.81256 8.85614 9.83229C8.35628 9.44154 7.75668 9.19912 7.12571 9.13268C6.49473 9.06623 5.85778 9.17843 5.2875 9.45649C4.71721 9.73454 4.23653 10.1673 3.90028 10.7053C3.56403 11.2433 3.38574 11.865 3.38574 12.4995C3.38574 13.1339 3.56403 13.7556 3.90028 14.2937C4.23653 14.8317 4.71721 15.2644 5.2875 15.5425C5.85778 15.8205 6.49473 15.9327 7.12571 15.8663C7.75668 15.7998 8.35628 15.5574 8.85614 15.1667C8.87866 15.1868 8.90231 15.2055 8.92698 15.2229L13.8541 18.6729C13.7078 19.4883 13.8656 20.329 14.2975 21.0359C14.7294 21.7427 15.4055 22.2667 16.1978 22.5086C16.9901 22.7504 17.8435 22.6934 18.5966 22.3483C19.3497 22.0032 19.9501 21.394 20.2842 20.636C20.6183 19.8779 20.6628 19.0237 20.4094 18.2351C20.156 17.4464 19.6222 16.778 18.9091 16.3564C18.196 15.9349 17.3531 15.7894 16.54 15.9475C15.7268 16.1057 14.9999 16.5565 14.4968 17.2146L9.83114 13.949C10.0395 13.5094 10.1561 13.0187 10.1561 12.5C10.1561 11.9812 10.0395 11.4896 9.83114 11.051L14.4978 7.78437C14.8474 8.24195 15.3079 8.60279 15.8358 8.83279C16.3637 9.06279 16.9415 9.15434 17.5146 9.09879C18.0878 9.04324 18.6373 8.84241 19.1111 8.51531C19.585 8.1882 19.9677 7.74563 20.2228 7.22944C20.478 6.71325 20.5973 6.1405 20.5695 5.56536C20.5416 4.99021 20.3675 4.43168 20.0636 3.94257C19.7597 3.45346 19.3361 3.04995 18.8328 2.77018C18.3295 2.49042 17.7632 2.34365 17.1874 2.34375ZM15.3645 5.72917C15.3645 5.2457 15.5565 4.78203 15.8984 4.44017C16.2403 4.09831 16.7039 3.90625 17.1874 3.90625C17.6709 3.90625 18.1345 4.09831 18.4764 4.44017C18.8183 4.78203 19.0103 5.2457 19.0103 5.72917C19.0103 6.21263 18.8183 6.6763 18.4764 7.01816C18.1345 7.36003 17.6709 7.55208 17.1874 7.55208C16.7039 7.55208 16.2403 7.36003 15.8984 7.01816C15.5565 6.6763 15.3645 6.21263 15.3645 5.72917ZM6.77073 10.6771C6.28726 10.6771 5.82359 10.8691 5.48173 11.211C5.13987 11.5529 4.94781 12.0165 4.94781 12.5C4.94781 12.9835 5.13987 13.4471 5.48173 13.789C5.82359 14.1309 6.28726 14.3229 6.77073 14.3229C7.25419 14.3229 7.71786 14.1309 8.05972 13.789C8.40159 13.4471 8.59364 12.9835 8.59364 12.5C8.59364 12.0165 8.40159 11.5529 8.05972 11.211C7.71786 10.8691 7.25419 10.6771 6.77073 10.6771ZM17.1874 17.4479C16.7039 17.4479 16.2403 17.64 15.8984 17.9818C15.5565 18.3237 15.3645 18.7874 15.3645 19.2708C15.3645 19.7543 15.5565 20.218 15.8984 20.5598C16.2403 20.9017 16.7039 21.0937 17.1874 21.0937C17.6709 21.0937 18.1345 20.9017 18.4764 20.5598C18.8183 20.218 19.0103 19.7543 19.0103 19.2708C19.0103 18.7874 18.8183 18.3237 18.4764 17.9818C18.1345 17.64 17.6709 17.4479 17.1874 17.4479Z" fill="#015FA2"/>
</svg>
