<svg width="45" height="46" viewBox="0 0 45 46" fill="none" xmlns="http://www.w3.org/2000/svg">
<circle cx="22.4922" cy="22.75" r="22.5" fill="#631f9e"/>
<path d="M32.7239 7.48096L27.3437 12.8611C25.3354 11.7238 23.0673 11.1258 20.7398 11.1258C13.3353 11.1258 7.2041 17.1161 7.2041 24.5424C7.2041 31.9548 13.3187 38.0186 20.7398 38.0186C28.1379 38.0186 34.1566 31.9733 34.1566 24.5424C34.1566 22.2056 33.554 19.9297 32.4082 17.9159L37.7835 12.5406L33.5671 11.6974L32.7239 7.48096ZM25.212 24.5424C25.212 27.0084 23.2059 29.0145 20.7398 29.0145C18.2741 29.0145 16.2677 27.0084 16.2677 24.5424C16.2677 22.0764 18.2741 20.0702 20.7398 20.0702C21.6502 20.0702 22.4973 20.3441 23.2045 20.813L21.8961 22.1214C21.5459 21.9534 21.1537 21.8592 20.7401 21.8592C19.2605 21.8592 18.0566 23.0628 18.0566 24.5424C18.0566 26.022 19.2605 27.2256 20.7401 27.2256C22.2197 27.2256 23.4233 26.022 23.4233 24.5424C23.4233 24.1287 23.329 23.7365 23.1611 23.3861L24.4694 22.078C24.9381 22.7851 25.212 23.6323 25.212 24.5424ZM21.6343 24.5424C21.6343 25.0356 21.233 25.4368 20.7398 25.4368C20.2466 25.4368 19.8456 25.0356 19.8456 24.5424C19.8456 24.0492 20.2466 23.6479 20.7398 23.6479C21.233 23.6479 21.6343 24.0492 21.6343 24.5424ZM24.4876 19.5299C23.442 18.746 22.1443 18.2812 20.7398 18.2812C17.2877 18.2812 14.4789 21.09 14.4789 24.5424C14.4789 27.9948 17.2877 30.8033 20.7398 30.8033C24.1923 30.8033 27.001 27.9948 27.001 24.5424C27.001 23.1381 26.5362 21.8403 25.7526 20.7946L27.0266 19.5205C28.1292 20.8984 28.7899 22.6444 28.7899 24.5424C28.7899 28.9812 25.1787 32.5922 20.7398 32.5922C16.3013 32.5922 12.69 28.9812 12.69 24.5424C12.69 20.1036 16.3013 16.4925 20.7398 16.4925C22.6378 16.4925 24.384 17.153 25.7617 18.2558L24.4876 19.5299ZM20.7398 36.2296C14.2627 36.2296 8.99307 30.9869 8.99307 24.5424C8.99307 18.1307 14.2627 12.9146 20.7398 12.9146C22.6417 12.9146 24.5091 13.3753 26.173 14.2535L26.1683 16.3329C24.6136 15.3038 22.7397 14.7035 20.7398 14.7035C15.3149 14.7035 10.901 19.1171 10.901 24.5424C10.901 29.9676 15.3149 34.3812 20.7398 34.3812C26.1651 34.3812 30.5787 29.9676 30.5787 24.5424C30.5787 22.5329 29.9728 20.6628 28.9348 19.1036H31.0196C31.9038 20.772 32.3676 22.6335 32.3676 24.5424C32.3676 30.9866 27.1515 36.2296 20.7398 36.2296ZM30.4795 17.3326H27.9431L27.9428 14.7859L31.6253 11.1095L32.0469 13.2176L34.155 13.6392L30.4795 17.3326Z" fill="#f7e7ff"/>
</svg>
